<svg width="32" height="32" viewBox="0 0 32 32" fill="none" xmlns="http://www.w3.org/2000/svg">
<path d="M2.59561 19.016L19.016 2.59556C20.3952 1.22531 22.2612 0.457642 24.2054 0.460779C26.1495 0.463917 28.0131 1.2376 29.3878 2.6123C30.7625 3.98699 31.5361 5.85058 31.5393 7.79469C31.5424 9.7388 30.7747 11.6049 29.4045 12.984L12.9841 29.4045C11.6049 30.7747 9.73885 31.5424 7.79474 31.5392C5.85063 31.5361 3.98704 30.7624 2.61234 29.3877C1.23765 28.013 0.463963 26.1494 0.460825 24.2053C0.457687 22.2612 1.22535 20.3951 2.59561 19.016Z" fill="white"/>
<path d="M3.90135 23.7778C4.37853 23.7778 4.76535 23.391 4.76535 22.9138C4.76535 22.4366 4.37853 22.0498 3.90135 22.0498C3.42418 22.0498 3.03735 22.4366 3.03735 22.9138C3.03735 23.391 3.42418 23.7778 3.90135 23.7778Z" fill="#61686F"/>
<path d="M6.49425 26.3698C6.97142 26.3698 7.35825 25.983 7.35825 25.5058C7.35825 25.0286 6.97142 24.6418 6.49425 24.6418C6.01708 24.6418 5.63025 25.0286 5.63025 25.5058C5.63025 25.983 6.01708 26.3698 6.49425 26.3698Z" fill="#61686F"/>
<path d="M9.08629 28.9627C9.56346 28.9627 9.95029 28.5758 9.95029 28.0987C9.95029 27.6215 9.56346 27.2347 9.08629 27.2347C8.60912 27.2347 8.22229 27.6215 8.22229 28.0987C8.22229 28.5758 8.60912 28.9627 9.08629 28.9627Z" fill="#61686F"/>
<path d="M6.49425 21.1849C6.97142 21.1849 7.35825 20.7981 7.35825 20.3209C7.35825 19.8437 6.97142 19.4569 6.49425 19.4569C6.01708 19.4569 5.63025 19.8437 5.63025 20.3209C5.63025 20.7981 6.01708 21.1849 6.49425 21.1849Z" fill="#61686F"/>
<path d="M9.08629 23.7778C9.56346 23.7778 9.95029 23.391 9.95029 22.9138C9.95029 22.4366 9.56346 22.0498 9.08629 22.0498C8.60912 22.0498 8.22229 22.4366 8.22229 22.9138C8.22229 23.391 8.60912 23.7778 9.08629 23.7778Z" fill="#61686F"/>
<path d="M11.6792 26.3698C12.1564 26.3698 12.5432 25.983 12.5432 25.5058C12.5432 25.0286 12.1564 24.6418 11.6792 24.6418C11.202 24.6418 10.8152 25.0286 10.8152 25.5058C10.8152 25.983 11.202 26.3698 11.6792 26.3698Z" fill="#61686F"/>
<path d="M19.4632 6.39022C19.4756 6.27668 19.5104 6.16674 19.5657 6.06674C19.6209 5.96675 19.6954 5.8787 19.7848 5.80768C19.8743 5.73667 19.9769 5.68409 20.0868 5.653C20.1967 5.62191 20.3117 5.61292 20.4251 5.62655C20.5385 5.64018 20.6481 5.67617 20.7475 5.73242C20.8469 5.78867 20.9342 5.86408 21.0043 5.95427C21.0744 6.04447 21.1259 6.14766 21.1558 6.25789C21.1857 6.36812 21.1935 6.48319 21.1787 6.59644C21.1492 6.82211 21.0318 7.02701 20.8521 7.16664C20.6724 7.30628 20.4449 7.36936 20.2189 7.3422C19.9929 7.31504 19.7868 7.19982 19.6453 7.02158C19.5038 6.84333 19.4384 6.61645 19.4632 6.39022Z" fill="#61686F"/>
<path d="M22.9138 9.95023C23.391 9.95023 23.7778 9.5634 23.7778 9.08623C23.7778 8.60905 23.391 8.22223 22.9138 8.22223C22.4366 8.22223 22.0498 8.60905 22.0498 9.08623C22.0498 9.5634 22.4366 9.95023 22.9138 9.95023Z" fill="#61686F"/>
<path d="M25.5058 12.5431C25.983 12.5431 26.3698 12.1563 26.3698 11.6791C26.3698 11.2019 25.983 10.8151 25.5058 10.8151C25.0287 10.8151 24.6418 11.2019 24.6418 11.6791C24.6418 12.1563 25.0287 12.5431 25.5058 12.5431Z" fill="#61686F"/>
<path d="M22.9138 4.76534C23.391 4.76534 23.7778 4.37851 23.7778 3.90134C23.7778 3.42416 23.391 3.03734 22.9138 3.03734C22.4366 3.03734 22.0498 3.42416 22.0498 3.90134C22.0498 4.37851 22.4366 4.76534 22.9138 4.76534Z" fill="#61686F"/>
<path d="M25.5058 7.35823C25.983 7.35823 26.3698 6.97141 26.3698 6.49423C26.3698 6.01706 25.983 5.63023 25.5058 5.63023C25.0287 5.63023 24.6418 6.01706 24.6418 6.49423C24.6418 6.97141 25.0287 7.35823 25.5058 7.35823Z" fill="#61686F"/>
<path d="M28.0987 9.95023C28.5759 9.95023 28.9627 9.5634 28.9627 9.08623C28.9627 8.60905 28.5759 8.22223 28.0987 8.22223C27.6216 8.22223 27.2347 8.60905 27.2347 9.08623C27.2347 9.5634 27.6216 9.95023 28.0987 9.95023Z" fill="#61686F"/>
<path d="M6.06226 15.568L15.5663 6.06134L25.9378 16.432L16.432 25.9378L6.06226 15.568Z" fill="#D1D1D1"/>
<path d="M8.71017 16.376C8.53918 16.3761 8.37202 16.3254 8.22985 16.2304C8.08767 16.1354 7.97688 16.0004 7.91149 15.8424C7.84611 15.6844 7.82907 15.5106 7.86254 15.3429C7.89601 15.1752 7.97847 15.0212 8.0995 14.9004L14.9573 8.04267C15.0375 7.96241 15.1328 7.89875 15.2377 7.85532C15.3425 7.81189 15.4549 7.78954 15.5684 7.78954C15.6819 7.78954 15.7943 7.81189 15.8991 7.85532C16.004 7.89875 16.0992 7.96241 16.1795 8.04267C16.2598 8.12292 16.3234 8.21819 16.3668 8.32305C16.4103 8.4279 16.4326 8.54028 16.4326 8.65378C16.4326 8.76727 16.4103 8.87965 16.3668 8.98451C16.3234 9.08936 16.2598 9.18464 16.1795 9.26489L9.32172 16.1227C9.24159 16.2032 9.14628 16.2671 9.04131 16.3106C8.93634 16.354 8.82379 16.3763 8.71017 16.376Z" fill="#61686F"/>
</svg>
