<svg width="35" height="35" viewBox="0 0 35 35" fill="none" xmlns="http://www.w3.org/2000/svg">
<path d="M18.9375 2V6.7425C18.9375 7.03258 19.0527 7.31078 19.2579 7.5159C19.463 7.72102 19.7412 7.83625 20.0312 7.83625C20.3213 7.83625 20.5995 7.72102 20.8046 7.5159C21.0098 7.31078 21.125 7.03258 21.125 6.7425V2H22.5833V8.19938C22.5833 8.48946 22.6986 8.76766 22.9037 8.97277C23.1088 9.17789 23.387 9.29313 23.6771 9.29313C23.9672 9.29313 24.2454 9.17789 24.4505 8.97277C24.6556 8.76766 24.7708 8.48946 24.7708 8.19938V2H27.3229C27.613 2 27.8912 2.11523 28.0963 2.32035C28.3014 2.52547 28.4167 2.80367 28.4167 3.09375V15.125H8V3.09375C8 2.80367 8.11523 2.52547 8.32035 2.32035C8.52547 2.11523 8.80367 2 9.09375 2H18.9375Z" fill="white"/>
<path d="M8 17.3125V19.8675C8 20.7377 8.3457 21.5723 8.96106 22.1877C9.57641 22.803 10.411 23.1488 11.2812 23.1488H15.2917V28.25C15.2917 29.0236 15.599 29.7654 16.1459 30.3124C16.6929 30.8594 17.4348 31.1667 18.2083 31.1667C18.9819 31.1667 19.7237 30.8594 20.2707 30.3124C20.8177 29.7654 21.125 29.0236 21.125 28.25V23.1488H25.1354C25.5663 23.1488 25.993 23.0639 26.3911 22.899C26.7892 22.7341 27.1509 22.4924 27.4556 22.1877C27.7603 21.883 28.002 21.5213 28.1669 21.1232C28.3318 20.7251 28.4167 20.2984 28.4167 19.8675V17.3125H8Z" fill="white"/>
</svg>
