<svg width="36" height="36" viewBox="0 0 36 36" fill="none" xmlns="http://www.w3.org/2000/svg">
<path d="M18 0C8.05887 0 0 8.05887 0 18C0 27.9411 8.05887 36 18 36C27.9411 36 36 27.9411 36 18C36 8.05887 27.9411 0 18 0ZM8.92749 7.60473L12.1311 8.61108C12.5552 8.75037 12.8377 9.14421 12.8869 9.54711L13.0671 11.3115L27.5735 12.9308C28.1964 13.0515 28.6341 13.6139 28.5469 14.1921L27.646 19.2677C27.5313 19.7986 27.0916 20.1625 26.6023 20.1686H13.7153L13.4627 21.6078H25.7014C26.3414 21.6303 26.8101 22.1176 26.8176 22.6867C26.7911 23.3358 26.2679 23.7607 25.7014 23.7677H12.1663C11.4836 23.7113 10.9824 23.1703 11.0874 22.5087L11.6631 19.3402L10.7622 10.4831L8.27928 9.69216C7.99128 9.59616 7.7751 9.41559 7.6311 9.15159C7.35864 8.58063 7.61313 7.94847 8.09913 7.67502C8.37651 7.53084 8.64741 7.51287 8.92749 7.60473ZM13.8054 24.3896C14.7374 24.3896 15.4929 25.1452 15.4929 26.0771C15.4929 27.0091 14.7374 27.7646 13.8054 27.7646C12.8735 27.7646 12.1179 27.0091 12.1179 26.0771C12.1179 25.1452 12.8734 24.3896 13.8054 24.3896ZM23.7107 24.3896C24.6426 24.3896 25.3982 25.1452 25.3982 26.0771C25.3982 27.0091 24.6426 27.7646 23.7107 27.7646C22.7787 27.7646 22.0232 27.0091 22.0232 26.0771C22.0232 25.1452 22.7787 24.3896 23.7107 24.3896Z" fill="#0E9B5E"/>
</svg>
