<svg width="25" height="24" viewBox="0 0 25 24" fill="none" xmlns="http://www.w3.org/2000/svg">
<path d="M24.9875 7.90825L23.9391 13.9209C23.8098 14.5851 23.2804 14.989 22.67 14.9966H7.38542L7.08196 16.7066H21.6492C22.4162 16.7649 22.9365 17.3081 22.9459 18.0029C22.8901 18.7681 22.3468 19.2897 21.6492 19.2992H5.53694C4.66554 19.2209 4.14594 18.5265 4.24023 17.7547L4.92996 14.0036L3.88156 3.46763L0.901915 2.52993C0.173769 2.24091 -0.123419 1.5824 0.0466436 0.902647C0.329415 0.194214 1.00698 -0.12946 1.67441 0.0476326L5.48175 1.26121C5.99467 1.45342 6.28973 1.87315 6.3646 2.36446L6.58531 4.46062L23.8563 6.39129C24.6498 6.56313 25.0806 7.19151 24.9875 7.90825ZM9.48483 22.0211C9.48483 23.114 8.59858 24 7.50529 24C6.41202 24 5.52577 23.114 5.52577 22.0211C5.52577 20.9281 6.41204 20.0421 7.50529 20.0421C8.59856 20.0421 9.48483 20.9282 9.48483 22.0211ZM21.3026 22.0211C21.3026 23.114 20.4163 24 19.323 24C18.2298 24 17.3435 23.114 17.3435 22.0211C17.3435 20.9281 18.2298 20.0421 19.323 20.0421C20.4163 20.0421 21.3026 20.9282 21.3026 22.0211Z" fill="#00D172"/>
</svg>
