<svg width="30" height="30" viewBox="0 0 30 30" fill="none" xmlns="http://www.w3.org/2000/svg">
<path d="M29.9849 10.0884L28.7269 17.3058C28.5717 18.1031 27.9365 18.5879 27.2039 18.597H8.8625L8.49835 20.6496H25.979C26.8994 20.7196 27.5238 21.3716 27.535 22.2056C27.4681 23.1242 26.8161 23.7503 25.979 23.7617H6.64432C5.59865 23.6676 4.97512 22.8341 5.08827 21.9077L5.91595 17.4051L4.65787 4.75807L1.0823 3.6325C0.208522 3.28557 -0.148103 2.49512 0.0559724 1.67917C0.395297 0.8288 1.20837 0.440275 2.0093 0.65285L6.5781 2.10958C7.1936 2.3403 7.54767 2.84412 7.63752 3.43387L7.90237 5.95003L28.6275 8.26753C29.5798 8.4738 30.0967 9.22807 29.9849 10.0884V10.0884ZM11.3818 27.0289C11.3818 28.3408 10.3183 29.4043 9.00635 29.4043C7.69442 29.4043 6.63092 28.3408 6.63092 27.0289C6.63092 25.717 7.69445 24.6534 9.00635 24.6534C10.3183 24.6535 11.3818 25.717 11.3818 27.0289ZM25.5631 27.0289C25.5631 28.3408 24.4996 29.4043 23.1876 29.4043C21.8757 29.4043 20.8122 28.3408 20.8122 27.0289C20.8122 25.717 21.8757 24.6534 23.1876 24.6534C24.4996 24.6535 25.5631 25.717 25.5631 27.0289Z" fill="#00D172"/>
</svg>
