<svg width="315" height="315" viewBox="0 0 315 315" fill="none" xmlns="http://www.w3.org/2000/svg">
<path d="M188.5 19.9339C188.5 8.92233 179.578 0 168.566 0H145.616C134.589 0 125.667 8.92233 125.667 19.9339C125.667 29.0133 119.446 36.8046 110.979 40.1348C109.644 40.6689 108.309 41.2344 107.005 41.7999C98.664 45.4128 88.7521 44.3132 82.3117 37.8885C78.5737 34.1532 73.5056 32.055 68.2213 32.055C62.937 32.055 57.8688 34.1532 54.1309 37.8885L37.8885 54.1309C34.1532 57.8688 32.055 62.937 32.055 68.2213C32.055 73.5056 34.1532 78.5737 37.8885 82.3117C44.3289 88.7521 45.4285 98.6483 41.7842 107.005C41.2116 108.32 40.6617 109.645 40.1348 110.979C36.8046 119.446 29.0133 125.667 19.9339 125.667C8.92233 125.667 0 134.589 0 145.601V168.566C0 179.578 8.92233 188.5 19.9339 188.5C29.0133 188.5 36.8046 194.721 40.1348 203.187C40.6689 204.523 41.2344 205.858 41.7842 207.161C45.4128 215.503 44.3132 225.415 37.8885 231.855C34.1532 235.593 32.055 240.661 32.055 245.945C32.055 251.23 34.1532 256.298 37.8885 260.036L54.1309 276.278C57.8688 280.013 62.937 282.112 68.2213 282.112C73.5056 282.112 78.5737 280.013 82.3117 276.278C88.7521 269.838 98.6483 268.738 107.005 272.367C108.309 272.948 109.644 273.498 110.979 274.032C119.446 277.362 125.667 285.153 125.667 294.233C125.667 305.244 134.589 314.167 145.601 314.167H168.566C179.578 314.167 188.5 305.244 188.5 294.233C188.5 285.153 194.721 277.362 203.187 274.016C204.523 273.498 205.858 272.948 207.161 272.383C215.503 268.738 225.415 269.853 231.839 276.278C233.69 278.13 235.888 279.599 238.307 280.601C240.726 281.604 243.319 282.12 245.938 282.12C248.556 282.12 251.149 281.604 253.568 280.601C255.987 279.599 258.185 278.13 260.036 276.278L276.278 260.036C280.013 256.298 282.112 251.23 282.112 245.945C282.112 240.661 280.013 235.593 276.278 231.855C269.838 225.415 268.738 215.518 272.367 207.161C272.948 205.858 273.498 204.523 274.032 203.187C277.362 194.721 285.153 188.5 294.233 188.5C305.244 188.5 314.167 179.578 314.167 168.566V145.616C314.167 134.605 305.244 125.682 294.233 125.682C285.153 125.682 277.362 119.462 274.016 110.995C273.49 109.661 272.94 108.336 272.367 107.021C268.754 98.6797 269.853 88.7678 276.278 82.3274C280.013 78.5895 282.112 73.5213 282.112 68.237C282.112 62.9527 280.013 57.8845 276.278 54.1466L260.036 37.9042C256.298 34.1689 251.23 32.0707 245.945 32.0707C240.661 32.0707 235.593 34.1689 231.855 37.9042C225.415 44.3446 215.518 45.4442 207.161 41.8156C205.846 41.2376 204.522 40.6825 203.187 40.1505C194.721 36.8046 188.5 29.0133 188.5 19.9496V19.9339Z" fill="#1E2832" fill-opacity="0.42"/>
<path d="M247.583 156.583C247.583 180.453 238.101 203.345 221.223 220.223C204.345 237.101 181.453 246.583 157.583 246.583C133.714 246.583 110.822 237.101 93.9436 220.223C77.0654 203.345 67.5833 180.453 67.5833 156.583C67.5833 132.714 77.0654 109.822 93.9436 92.9437C110.822 76.0654 133.714 66.5833 157.583 66.5833C181.453 66.5833 204.345 76.0654 221.223 92.9437C238.101 109.822 247.583 132.714 247.583 156.583Z" fill="#4E555D"/>
</svg>
