<svg width="91" height="17" viewBox="0 0 91 17" fill="none" xmlns="http://www.w3.org/2000/svg">
<path d="M9.60922 0L11.6872 5.87336L18.4115 5.87336L12.9714 9.50329L15.0493 15.3766L9.60922 11.7467L4.1691 15.3766L6.24704 9.50329L0.806929 5.87336L7.53128 5.87336L9.60922 0Z" fill="#FFFF92"/>
<path d="M28.6642 0L30.8644 5.87336L37.9843 5.87336L32.2242 9.50329L34.4243 15.3766L28.6642 11.7467L22.9041 15.3766L25.1043 9.50329L19.3441 5.87336L26.464 5.87336L28.6642 0Z" fill="#FFFF92"/>
<path d="M45.5414 0L47.6194 5.87336L54.3437 5.87336L48.9036 9.50329L50.9816 15.3766L45.5414 11.7467L40.1013 15.3766L42.1793 9.50329L36.7391 5.87336L43.4635 5.87336L45.5414 0Z" fill="#FFFF92"/>
<path d="M64.052 0L66.1299 5.87336L72.8543 5.87336L67.4142 9.50329L69.4921 15.3766L64.052 11.7467L58.6119 15.3766L60.6898 9.50329L55.2497 5.87336L61.9741 5.87336L64.052 0Z" fill="#FFFF92"/>
<path d="M81.4737 0L83.5516 5.87336L90.276 5.87336L84.8359 9.50329L86.9138 15.3766L81.4737 11.7467L76.0336 15.3766L78.1115 9.50329L72.6714 5.87336L79.3957 5.87336L81.4737 0Z" fill="#FFFF92"/>
</svg>
