<svg width="42" height="42" viewBox="0 0 42 42" fill="none" xmlns="http://www.w3.org/2000/svg">
<path d="M5.25 14C5.25 14.9625 6.0375 15.75 7 15.75C7.9625 15.75 8.75 14.9625 8.75 14V10.5H12.25C13.2125 10.5 14 9.7125 14 8.75C14 7.7875 13.2125 7 12.25 7H8.75V3.5C8.75 2.5375 7.9625 1.75 7 1.75C6.0375 1.75 5.25 2.5375 5.25 3.5V7H1.75C0.7875 7 0 7.7875 0 8.75C0 9.7125 0.7875 10.5 1.75 10.5H5.25V14Z" fill="#00D172"/>
<path d="M22.75 29.75C25.6495 29.75 28 27.3995 28 24.5C28 21.6005 25.6495 19.25 22.75 19.25C19.8505 19.25 17.5 21.6005 17.5 24.5C17.5 27.3995 19.8505 29.75 22.75 29.75Z" fill="#00D172"/>
<path d="M36.75 10.5H31.2025L29.0325 8.1375C28.7064 7.77944 28.3092 7.49334 27.8662 7.29748C27.4233 7.10161 26.9443 7.0003 26.46 7H15.26C15.5575 7.525 15.75 8.1025 15.75 8.75C15.75 10.675 14.175 12.25 12.25 12.25H10.5V14C10.5 15.925 8.925 17.5 7 17.5C6.3525 17.5 5.775 17.3075 5.25 17.01V35C5.25 36.925 6.825 38.5 8.75 38.5H36.75C38.675 38.5 40.25 36.925 40.25 35V14C40.25 12.075 38.675 10.5 36.75 10.5ZM22.75 33.25C17.92 33.25 14 29.33 14 24.5C14 19.67 17.92 15.75 22.75 15.75C27.58 15.75 31.5 19.67 31.5 24.5C31.5 29.33 27.58 33.25 22.75 33.25Z" fill="#00D172"/>
</svg>
