<svg width="192" height="192" viewBox="0 0 192 192" fill="none" xmlns="http://www.w3.org/2000/svg">
<path d="M132 72C132 81.5478 128.207 90.7045 121.456 97.4558C114.705 104.207 105.548 108 96 108C86.4522 108 77.2955 104.207 70.5442 97.4558C63.7928 90.7045 60 81.5478 60 72C60 62.4522 63.7928 53.2955 70.5442 46.5442C77.2955 39.7928 86.4522 36 96 36C105.548 36 114.705 39.7928 121.456 46.5442C128.207 53.2955 132 62.4522 132 72Z" fill="#2E3A48"/>
<path fill-rule="evenodd" clip-rule="evenodd" d="M0 96C0 70.5392 10.1143 46.1212 28.1178 28.1178C46.1212 10.1143 70.5392 0 96 0C121.461 0 145.879 10.1143 163.882 28.1178C181.886 46.1212 192 70.5392 192 96C192 121.461 181.886 145.879 163.882 163.882C145.879 181.886 121.461 192 96 192C70.5392 192 46.1212 181.886 28.1178 163.882C10.1143 145.879 0 121.461 0 96ZM96 12C80.1813 12.0008 64.6844 16.4684 51.2928 24.8883C37.9013 33.3083 27.1594 45.3385 20.3036 59.5943C13.4477 73.8501 10.7566 89.7521 12.54 105.47C14.3233 121.188 20.5086 136.083 30.384 148.44C38.904 134.712 57.66 120 96 120C134.34 120 153.084 134.7 161.616 148.44C171.491 136.083 177.677 121.188 179.46 105.47C181.243 89.7521 178.552 73.8501 171.696 59.5943C164.841 45.3385 154.099 33.3083 140.707 24.8883C127.316 16.4684 111.819 12.0008 96 12Z" fill="#2E3A48"/>
</svg>
