<svg width="34" height="34" viewBox="0 0 34 34" fill="none" xmlns="http://www.w3.org/2000/svg">
<path d="M17 0C7.61115 0 0 7.61115 0 17C0 26.3888 7.61115 34 17 34C26.3888 34 34 26.3888 34 17C34 7.61115 26.3888 0 17 0ZM8.43152 7.18224L11.4571 8.13269C11.8577 8.26424 12.1245 8.6362 12.171 9.01671L12.3412 10.6831L26.0416 12.2125C26.6299 12.3264 27.0433 12.8576 26.9609 13.4036L26.1101 18.1973C26.0018 18.6987 25.5865 19.0424 25.1244 19.0481H12.9534L12.7147 20.4074H24.2736C24.878 20.4286 25.3207 20.8889 25.3278 21.4263C25.3027 22.0394 24.8086 22.4407 24.2736 22.4473H11.4904C10.8456 22.394 10.3723 21.883 10.4714 21.2582L11.0151 18.2658L10.1643 9.90074L7.81932 9.15371C7.54732 9.06304 7.34315 8.8925 7.20715 8.64317C6.94983 8.10393 7.19018 7.50689 7.64918 7.24863C7.91115 7.11246 8.167 7.09549 8.43152 7.18224ZM13.0385 23.0347C13.9187 23.0347 14.6322 23.7482 14.6322 24.6284C14.6322 25.5086 13.9187 26.2222 13.0385 26.2222C12.1583 26.2222 11.4447 25.5086 11.4447 24.6284C11.4447 23.7482 12.1583 23.0347 13.0385 23.0347ZM22.3934 23.0347C23.2736 23.0347 23.9872 23.7482 23.9872 24.6284C23.9872 25.5086 23.2736 26.2222 22.3934 26.2222C21.5132 26.2222 20.7997 25.5086 20.7997 24.6284C20.7997 23.7482 21.5132 23.0347 22.3934 23.0347Z" fill="#00D172"/>
</svg>
