<svg width="30" height="30" viewBox="0 0 30 30" fill="none" xmlns="http://www.w3.org/2000/svg">
<circle cx="15.2902" cy="15.2903" r="14.7097" fill="#00D172"/>
<path d="M15.2904 3.67743C13.8124 3.67743 12.6577 4.20662 11.8263 5.26499C10.9949 6.32336 10.5792 7.67628 10.5792 9.32374C10.569 11.3706 11.2464 12.9931 12.6115 14.1913C12.786 14.351 12.8476 14.5557 12.7962 14.8053L12.4421 15.5242C12.3292 15.7638 12.1624 15.951 11.9418 16.0858C11.7211 16.2206 11.2566 16.4128 10.5484 16.6625C10.5176 16.6724 9.86845 16.8771 8.60085 17.2765C7.33326 17.6759 6.65841 17.8956 6.57629 17.9355C5.71412 18.285 5.14961 18.6494 4.88275 19.0288C4.59536 19.6578 4.45166 21.2504 4.45166 23.8065H26.1291C26.1291 21.2504 25.9854 19.6578 25.698 19.0288C25.4311 18.6494 24.8666 18.285 24.0044 17.9355C23.9223 17.8956 23.2475 17.6759 21.9799 17.2765C20.7123 16.8771 20.0631 16.6724 20.0323 16.6625C19.3241 16.4128 18.8597 16.2206 18.639 16.0858C18.4183 15.951 18.2515 15.7638 18.1386 15.5242L17.7845 14.8053C17.7332 14.5557 17.7948 14.351 17.9693 14.1913C19.3344 12.9931 20.0118 11.3706 20.0015 9.32374C20.0015 7.67628 19.5858 6.32336 18.7544 5.26499C17.9231 4.20662 16.7684 3.67743 15.2904 3.67743Z" fill="#1E2832"/>
</svg>
