<svg width="34" height="34" viewBox="0 0 34 34" fill="none" xmlns="http://www.w3.org/2000/svg">
<path d="M15.5834 0V5.66667H18.4167V0H15.5834ZM25.925 3.24417L21.59 7.49417L23.5734 9.50583L27.9084 5.25583L25.925 3.24417ZM8.08921 3.24417L6.07754 5.25583L10.3275 9.50583L12.3392 7.49417L8.08921 3.24417ZM17 8.5C15.4971 8.5 14.0558 9.09702 12.9931 10.1597C11.9304 11.2224 11.3334 12.6638 11.3334 14.1667V22.6667H8.50004V25.5H12.75V32.5833H15.5834V25.5H18.4167V32.5833H21.25V25.5H25.5V22.6667H22.6667V14.1667C22.6667 12.6638 22.0697 11.2224 21.007 10.1597C19.9443 9.09702 18.5029 8.5 17 8.5ZM2.83337 12.75V15.5833H8.50004V12.75H2.83337ZM25.5 12.75V15.5833H31.1667V12.75H25.5Z" fill="white"/>
</svg>
