<svg width="223" height="62" viewBox="0 0 223 62" fill="none" xmlns="http://www.w3.org/2000/svg">
<path d="M65.9362 36.3943L68.9245 26.2957C69.0417 25.9266 69.2878 25.742 69.6628 25.742C70.0261 25.742 70.2546 25.8973 70.3483 26.2078L73.2927 36.4647C73.3161 36.5408 73.3278 36.6141 73.3278 36.6844C73.3278 36.8895 73.2575 37.0652 73.1169 37.2117C72.9763 37.3524 72.8151 37.4227 72.6335 37.4227C72.2468 37.4227 72.0007 37.244 71.8952 36.8865L71.2975 34.8826H67.9313L67.2809 37.0272C67.2634 37.1209 67.1901 37.2117 67.0612 37.2996C66.9323 37.3817 66.7917 37.4227 66.6393 37.4227C66.4225 37.4227 66.2438 37.3494 66.1032 37.2029C65.9626 37.0565 65.8923 36.8777 65.8923 36.6668C65.8923 36.5789 65.9069 36.4881 65.9362 36.3943ZM69.6452 29.1609L68.3796 33.3885H70.8669L69.6452 29.1609ZM78.4431 25.742H82.2839C82.7526 25.742 83.195 25.9412 83.611 26.3397C84.0329 26.7322 84.2438 27.2098 84.2438 27.7723C84.2438 27.9832 84.1677 28.1619 84.0153 28.3084C83.8688 28.4549 83.7048 28.5281 83.5231 28.5281C83.2712 28.5281 83.0983 28.4725 83.0046 28.3611C82.9108 28.244 82.82 28.0301 82.7321 27.7195C82.6501 27.409 82.4626 27.2537 82.1696 27.2537H78.5222C78.3464 27.2537 78.2585 27.3094 78.2585 27.4207C78.2585 27.491 78.2966 27.5731 78.3727 27.6668L83.8483 34.6717C84.112 35.0115 84.2438 35.3748 84.2438 35.7615C84.2438 36.201 84.0827 36.5877 83.7604 36.9217C83.444 37.2557 83.0895 37.4227 82.697 37.4227H78.7155C78.1882 37.4227 77.7282 37.2234 77.3356 36.825C76.9489 36.4207 76.7556 35.9783 76.7556 35.4979C76.7556 34.9471 77.0134 34.6717 77.529 34.6717C77.7282 34.6717 77.8981 34.7449 78.0388 34.8914C78.1794 35.032 78.2497 35.199 78.2497 35.3924C78.2497 35.5506 78.3024 35.6824 78.4079 35.7879C78.5192 35.8934 78.6569 35.9461 78.821 35.9461H82.4948C82.653 35.9461 82.7321 35.8846 82.7321 35.7615C82.7321 35.7029 82.694 35.6268 82.6179 35.533L77.1511 28.5281C76.8932 28.1942 76.7643 27.8309 76.7643 27.4383C76.7643 26.9813 76.9284 26.5858 77.2565 26.2518C77.5847 25.9119 77.9802 25.742 78.4431 25.742ZM94.3513 27.2361H89.1306V30.8309H91.3806C91.5798 30.8309 91.7526 30.9041 91.8991 31.0506C92.0456 31.1971 92.1188 31.3699 92.1188 31.5692C92.1188 31.7801 92.0456 31.9588 91.8991 32.1053C91.7585 32.2518 91.5856 32.325 91.3806 32.325H89.1306V35.9461H94.3688C94.5681 35.9461 94.7409 36.0193 94.8874 36.1658C95.0339 36.3065 95.1071 36.4793 95.1071 36.6844C95.1071 36.8895 95.0309 37.0652 94.8786 37.2117C94.7321 37.3524 94.5563 37.4227 94.3513 37.4227H87.654V25.742H94.3513C94.5563 25.742 94.7321 25.8182 94.8786 25.9705C95.0309 26.117 95.1071 26.2928 95.1071 26.4979C95.1071 26.6971 95.0309 26.8699 94.8786 27.0164C94.7321 27.1629 94.5563 27.2361 94.3513 27.2361Z" fill="white"/>
<path d="M144.36 36.3943L147.349 26.2957C147.466 25.9266 147.712 25.742 148.087 25.742C148.45 25.742 148.679 25.8973 148.772 26.2078L151.717 36.4647C151.74 36.5408 151.752 36.6141 151.752 36.6844C151.752 36.8895 151.682 37.0652 151.541 37.2117C151.4 37.3524 151.239 37.4227 151.058 37.4227C150.671 37.4227 150.425 37.244 150.319 36.8865L149.722 34.8826H146.355L145.705 37.0272C145.687 37.1209 145.614 37.2117 145.485 37.2996C145.356 37.3817 145.216 37.4227 145.063 37.4227C144.847 37.4227 144.668 37.3494 144.527 37.2029C144.387 37.0565 144.316 36.8777 144.316 36.6668C144.316 36.5789 144.331 36.4881 144.36 36.3943ZM148.069 29.1609L146.804 33.3885H149.291L148.069 29.1609ZM155.18 36.6844V26.4979C155.18 26.2869 155.25 26.1082 155.391 25.9617C155.537 25.8152 155.713 25.742 155.918 25.742C156.123 25.742 156.296 25.8152 156.436 25.9617C156.583 26.1024 156.656 26.2752 156.656 26.4803V29.9695L161.385 25.9354C161.549 25.8006 161.733 25.7332 161.938 25.7332C162.143 25.7332 162.316 25.8094 162.457 25.9617C162.598 26.1141 162.668 26.2899 162.668 26.4891C162.668 26.6942 162.589 26.8641 162.431 26.9988L157.069 31.5516L162.431 36.1834C162.577 36.3065 162.65 36.4647 162.65 36.658C162.65 36.8514 162.577 37.0272 162.431 37.1854C162.29 37.3436 162.114 37.4227 161.903 37.4227C161.704 37.4227 161.525 37.3553 161.367 37.2205L156.656 33.16V36.6844C156.656 36.8895 156.583 37.0652 156.436 37.2117C156.296 37.3524 156.123 37.4227 155.918 37.4227C155.719 37.4227 155.546 37.3524 155.399 37.2117C155.253 37.0652 155.18 36.8895 155.18 36.6844ZM172.775 27.2361H167.555V30.8309H169.805C170.004 30.8309 170.177 30.9041 170.323 31.0506C170.47 31.1971 170.543 31.3699 170.543 31.5692C170.543 31.7801 170.47 31.9588 170.323 32.1053C170.183 32.2518 170.01 32.325 169.805 32.325H167.555V35.9461H172.793C172.992 35.9461 173.165 36.0193 173.311 36.1658C173.458 36.3065 173.531 36.4793 173.531 36.6844C173.531 36.8895 173.455 37.0652 173.303 37.2117C173.156 37.3524 172.98 37.4227 172.775 37.4227H166.078V25.742H172.775C172.98 25.742 173.156 25.8182 173.303 25.9705C173.455 26.117 173.531 26.2928 173.531 26.4979C173.531 26.6971 173.455 26.8699 173.303 27.0164C173.156 27.1629 172.98 27.2361 172.775 27.2361ZM176.977 36.6844V25.742H182.197C182.801 25.742 183.319 25.9617 183.753 26.4012C184.192 26.8406 184.412 27.3651 184.412 27.9744V28.8182C184.412 29.4334 184.195 29.9608 183.762 30.4002C183.328 30.8338 182.807 31.0506 182.197 31.0506H181.257L184.28 36.2361C184.374 36.3885 184.421 36.5408 184.421 36.6932C184.421 36.8924 184.345 37.0652 184.192 37.2117C184.04 37.3524 183.867 37.4227 183.674 37.4227C183.381 37.4227 183.158 37.2908 183.006 37.0272L179.534 31.0506H178.471V36.6844C178.471 36.8895 178.394 37.0652 178.242 37.2117C178.096 37.3524 177.92 37.4227 177.715 37.4227C177.51 37.4227 177.334 37.3524 177.187 37.2117C177.047 37.0652 176.977 36.8895 176.977 36.6844ZM178.453 29.574H182.197C182.402 29.574 182.575 29.5037 182.716 29.3631C182.862 29.2166 182.935 29.0408 182.935 28.8358V27.9744C182.935 27.7693 182.862 27.5965 182.716 27.4559C182.575 27.3094 182.402 27.2361 182.197 27.2361H178.453V29.574Z" fill="white"/>
<path d="M113.166 24.078V42.0427L108.022 43.188V19.47L113.166 24.078Z" fill="url(#paint0_linear)" stroke="#00D172" stroke-miterlimit="10"/>
<path d="M138.376 19.4164V43.188L133.594 42.1423V24.2657L138.376 19.4164Z" fill="url(#paint1_linear)" stroke="#00D172" stroke-miterlimit="10"/>
<path d="M108.022 19.0832V15.8924C108.021 15.7225 108.074 15.5559 108.175 15.4136C108.276 15.2713 108.42 15.1594 108.589 15.092C108.759 15.0246 108.946 15.0047 109.128 15.0346C109.309 15.0645 109.477 15.1431 109.611 15.2604C113.445 18.6235 122.944 26.97 123.646 27.7399C131.165 19.991 134.746 16.8807 137.146 15.0459C138.298 14.1485 139.745 13.6338 141.253 13.5845C142.761 13.5352 144.244 13.9541 145.463 14.7739C146.127 15.2204 146.676 15.7958 147.072 16.4593C142.606 14.1228 136.056 21.4389 136.056 21.4389L131.81 25.7634L123.759 34.0218L115.025 26.0545L110.376 21.5806L108.297 19.6654C108.21 19.5908 108.141 19.5007 108.094 19.4005C108.047 19.3004 108.022 19.1923 108.022 19.0832Z" fill="url(#paint2_linear)" stroke="#00D172" stroke-miterlimit="10"/>
<path d="M31.7475 32.5854C31.6036 31.8047 31.5354 31.0138 31.5438 30.222C31.5265 29.4733 31.5821 28.7246 31.7101 27.9851C31.7346 27.8597 31.7047 27.7306 31.627 27.6253C31.5492 27.52 31.4298 27.447 31.2942 27.422L30.9117 27.3837C30.7762 27.3638 30.6544 27.2965 30.5715 27.1959C30.4886 27.0953 30.451 26.9691 30.4667 26.8436C30.7262 24.8723 31.5677 23.0043 32.8995 21.4427C32.9872 21.3452 33.1128 21.2831 33.2494 21.2695C33.3861 21.2559 33.5231 21.2919 33.6314 21.3699L33.8726 21.5193C33.9308 21.5573 33.9969 21.5838 34.0666 21.5972C34.1364 21.6107 34.2085 21.6107 34.2783 21.5974C34.3481 21.5841 34.4142 21.5578 34.4725 21.5199C34.5308 21.4821 34.58 21.4337 34.617 21.3776C35.5225 19.9815 36.7827 18.8089 38.2892 17.9608C38.3996 17.8895 38.4765 17.7821 38.5043 17.6605C38.5321 17.5389 38.5087 17.4122 38.4389 17.3058L38.3016 17.1028C38.2358 17.0024 38.211 16.8836 38.2316 16.7678C38.2522 16.652 38.3168 16.5467 38.4139 16.4708C40.0788 15.2238 42.1019 14.4505 44.2361 14.2453C44.3703 14.2352 44.5036 14.2722 44.6093 14.3489C44.7151 14.4257 44.7853 14.5365 44.8058 14.659C44.9431 15.4251 44.9597 15.2527 44.9597 15.2527C47.0274 14.7345 49.1957 14.6546 51.3017 15.0191C51.4226 15.0358 51.546 15.0137 51.6513 14.9565C51.7565 14.8993 51.8372 14.8105 51.8798 14.705L52.0129 14.3679C52.0505 14.2692 52.122 14.1845 52.2165 14.1264C52.311 14.0684 52.4235 14.0402 52.5369 14.0462C54.9839 14.212 57.3028 15.1183 59.1325 16.624C59.2287 16.703 59.2903 16.8116 59.3056 16.9294C59.3209 17.0472 59.2889 17.1661 59.2157 17.2637C59.1364 17.3674 59.1043 17.4955 59.126 17.6207C59.1478 17.7459 59.2217 17.8583 59.3322 17.934C61.3151 19.238 62.9376 20.9528 64.0689 22.9404C64.1143 23.015 64.1374 23.0994 64.1361 23.1849C64.1348 23.2705 64.109 23.3542 64.0613 23.4276C64.0137 23.501 63.9458 23.5616 63.8647 23.6031C63.7835 23.6447 63.6918 23.6658 63.599 23.6643H62.6674H62.1518C61.9908 23.6646 61.8325 23.6262 61.6925 23.553C61.5525 23.4798 61.4356 23.3743 61.3533 23.2468C59.7456 20.8025 57.342 18.8873 54.4844 17.7738C51.6268 16.6602 48.4608 16.405 45.4366 17.0444C42.4124 17.6838 39.6842 19.1853 37.6399 21.3353C35.5957 23.4852 34.3396 26.1742 34.0503 29.0196C33.7609 31.8651 34.4532 34.7221 36.0284 37.1843C37.6037 39.6464 39.9818 41.5884 42.8245 42.7339C45.6672 43.8794 48.8296 44.1701 51.862 43.5646C54.8944 42.9591 57.6423 41.4883 59.7148 39.3614C59.8467 39.2266 60.0096 39.1206 60.1916 39.051C60.3736 38.9814 60.5701 38.9501 60.7669 38.9592L61.9937 39.0167C62.094 39.0166 62.1923 39.0427 62.2773 39.0918C62.3622 39.141 62.4303 39.2113 62.4738 39.2945C62.5173 39.3778 62.5343 39.4707 62.5229 39.5625C62.5116 39.6543 62.4723 39.7413 62.4096 39.8134C61.6084 40.7084 60.7049 41.5213 59.7148 42.2381C59.6557 42.2796 59.6067 42.332 59.571 42.392C59.5353 42.452 59.5136 42.5183 59.5073 42.5865C59.501 42.6546 59.5103 42.7233 59.5346 42.788C59.5589 42.8526 59.5976 42.9119 59.6482 42.962L59.8063 43.1152C59.8565 43.1642 59.8952 43.2221 59.92 43.2855C59.9449 43.3488 59.9553 43.4162 59.9506 43.4834C59.9459 43.5506 59.9262 43.6162 59.8928 43.6761C59.8594 43.736 59.8129 43.7889 59.7563 43.8315C57.9775 45.1082 55.8803 45.9548 53.6555 46.2945C53.5213 46.3147 53.3837 46.2861 53.2719 46.2146C53.1602 46.1431 53.083 46.0344 53.0567 45.9114C53.0567 45.8387 53.0276 45.7697 53.0109 45.7008C52.998 45.6379 52.9717 45.5781 52.9334 45.5247C52.8952 45.4713 52.8458 45.4255 52.7881 45.3899C52.7305 45.3542 52.6657 45.3295 52.5976 45.3171C52.5294 45.3047 52.4593 45.3049 52.3913 45.3177C50.3611 45.7489 48.2589 45.81 46.2032 45.4977C46.0709 45.4772 45.9351 45.5027 45.8222 45.5693C45.7092 45.6358 45.6271 45.7386 45.5918 45.8578L45.5336 46.0685C45.4992 46.1879 45.4171 46.2909 45.3037 46.3569C45.1904 46.423 45.0542 46.4472 44.9223 46.4247C42.7796 46.0761 40.7356 45.3321 38.913 44.2375C38.7999 44.1646 38.7211 44.0548 38.6925 43.9303C38.6639 43.8059 38.6877 43.6761 38.7591 43.5672C39.1999 42.8892 39.1084 43.0233 39.1084 43.0233L39.0003 42.9543C37.3982 41.9779 35.9971 40.7471 34.8624 39.3193C34.7798 39.2209 34.6604 39.1542 34.5275 39.1323C34.3946 39.1103 34.2575 39.1347 34.143 39.2005L33.9683 39.3078C33.8579 39.3755 33.7239 39.4024 33.5929 39.3832C33.4619 39.3641 33.3435 39.3002 33.2613 39.2044C31.838 37.5218 30.9329 35.5173 30.6413 33.4013C30.6313 33.2779 30.6718 33.1555 30.755 33.0584C30.8382 32.9612 30.9579 32.8963 31.0905 32.8765C31.9472 32.7463 31.7309 32.7463 31.7309 32.7463" fill="url(#paint3_linear)"/>
<path d="M31.7475 32.5854C31.6036 31.8047 31.5354 31.0138 31.5438 30.222C31.5265 29.4733 31.5821 28.7246 31.7101 27.9851C31.7346 27.8597 31.7047 27.7306 31.627 27.6253C31.5492 27.52 31.4298 27.447 31.2942 27.422L30.9117 27.3837C30.7762 27.3638 30.6544 27.2965 30.5715 27.1959C30.4886 27.0953 30.451 26.9691 30.4667 26.8436C30.7262 24.8723 31.5677 23.0043 32.8995 21.4427C32.9872 21.3452 33.1128 21.2831 33.2494 21.2695C33.3861 21.2559 33.5231 21.2919 33.6314 21.3699L33.8726 21.5193C33.9308 21.5573 33.9969 21.5838 34.0666 21.5972C34.1364 21.6107 34.2085 21.6107 34.2783 21.5974C34.3481 21.5841 34.4142 21.5578 34.4725 21.5199C34.5308 21.4821 34.58 21.4337 34.617 21.3776C35.5225 19.9815 36.7827 18.8089 38.2892 17.9608C38.3996 17.8895 38.4765 17.7821 38.5043 17.6605C38.5321 17.5389 38.5087 17.4122 38.4389 17.3058L38.3016 17.1028C38.2358 17.0024 38.211 16.8836 38.2316 16.7678C38.2522 16.652 38.3168 16.5467 38.4139 16.4708C40.0788 15.2238 42.1019 14.4505 44.2361 14.2453C44.3703 14.2352 44.5036 14.2722 44.6093 14.3489C44.7151 14.4257 44.7853 14.5365 44.8058 14.659C44.9431 15.4251 44.9597 15.2527 44.9597 15.2527C47.0274 14.7345 49.1957 14.6546 51.3017 15.0191C51.4226 15.0358 51.546 15.0137 51.6513 14.9565C51.7565 14.8993 51.8372 14.8105 51.8798 14.705L52.0129 14.3679C52.0505 14.2692 52.122 14.1845 52.2165 14.1264C52.311 14.0684 52.4235 14.0402 52.5369 14.0462C54.9839 14.212 57.3028 15.1183 59.1325 16.624C59.2287 16.703 59.2903 16.8116 59.3056 16.9294C59.3209 17.0472 59.2889 17.1661 59.2157 17.2637V17.2637C59.1364 17.3674 59.1043 17.4955 59.126 17.6207C59.1478 17.7459 59.2217 17.8583 59.3322 17.934C61.3151 19.238 62.9376 20.9528 64.0689 22.9404C64.1143 23.015 64.1374 23.0994 64.1361 23.1849C64.1348 23.2705 64.109 23.3542 64.0613 23.4276C64.0137 23.501 63.9458 23.5616 63.8647 23.6031C63.7835 23.6447 63.6918 23.6658 63.599 23.6643H62.6674H62.1518C61.9908 23.6646 61.8325 23.6262 61.6925 23.553C61.5525 23.4798 61.4356 23.3743 61.3533 23.2468C59.7456 20.8025 57.342 18.8873 54.4844 17.7738C51.6268 16.6602 48.4608 16.405 45.4366 17.0444C42.4124 17.6838 39.6842 19.1853 37.6399 21.3353C35.5957 23.4852 34.3396 26.1742 34.0503 29.0196C33.7609 31.8651 34.4532 34.7221 36.0284 37.1843C37.6037 39.6464 39.9818 41.5884 42.8245 42.7339C45.6672 43.8794 48.8296 44.1701 51.862 43.5646C54.8944 42.9591 57.6423 41.4883 59.7148 39.3614C59.8467 39.2266 60.0096 39.1206 60.1916 39.051C60.3736 38.9814 60.5701 38.9501 60.7669 38.9592L61.9937 39.0167C62.094 39.0166 62.1923 39.0427 62.2773 39.0918C62.3622 39.141 62.4303 39.2113 62.4738 39.2945C62.5173 39.3778 62.5343 39.4707 62.5229 39.5625C62.5116 39.6543 62.4723 39.7413 62.4096 39.8134C61.6084 40.7084 60.7049 41.5213 59.7148 42.2381C59.6557 42.2796 59.6067 42.332 59.571 42.392C59.5353 42.452 59.5136 42.5183 59.5073 42.5864C59.501 42.6546 59.5103 42.7233 59.5346 42.788C59.5589 42.8526 59.5976 42.9119 59.6482 42.962L59.8063 43.1152C59.8565 43.1642 59.8952 43.2221 59.92 43.2855C59.9449 43.3488 59.9553 43.4162 59.9506 43.4834C59.9459 43.5506 59.9262 43.6162 59.8928 43.6761C59.8594 43.736 59.8129 43.7889 59.7563 43.8315C57.9775 45.1082 55.8803 45.9548 53.6555 46.2945C53.5213 46.3147 53.3837 46.2861 53.2719 46.2146C53.1602 46.1431 53.083 46.0344 53.0567 45.9114C53.0567 45.8387 53.0276 45.7697 53.0109 45.7008C52.998 45.6379 52.9717 45.5781 52.9334 45.5247C52.8952 45.4713 52.8458 45.4255 52.7881 45.3899C52.7305 45.3542 52.6657 45.3295 52.5976 45.3171C52.5294 45.3047 52.4593 45.3049 52.3913 45.3177C50.3611 45.7489 48.2589 45.81 46.2032 45.4977C46.0709 45.4772 45.9351 45.5027 45.8222 45.5693C45.7092 45.6358 45.6271 45.7386 45.5918 45.8578L45.5336 46.0685C45.4992 46.1879 45.4171 46.2909 45.3037 46.3569C45.1904 46.423 45.0542 46.4472 44.9223 46.4247C42.7796 46.0761 40.7356 45.3321 38.913 44.2375C38.7999 44.1646 38.7211 44.0548 38.6925 43.9303C38.6639 43.8059 38.6877 43.6761 38.7591 43.5672C39.1999 42.8892 39.1084 43.0233 39.1084 43.0233L39.0003 42.9543C37.3982 41.9779 35.9971 40.7471 34.8624 39.3193C34.7798 39.2209 34.6604 39.1542 34.5275 39.1323C34.3946 39.1103 34.2575 39.1347 34.143 39.2005L33.9683 39.3078C33.8579 39.3755 33.7239 39.4024 33.5929 39.3832C33.4619 39.3641 33.3435 39.3002 33.2613 39.2044C31.838 37.5218 30.9329 35.5173 30.6413 33.4013C30.6313 33.2779 30.6718 33.1555 30.755 33.0584C30.8382 32.9612 30.9579 32.8963 31.0905 32.8765C31.9472 32.7463 31.7309 32.7463 31.7309 32.7463" stroke="#00D172" stroke-miterlimit="10"/>
<defs>
<linearGradient id="paint0_linear" x1="115.258" y1="23.3157" x2="105.423" y2="41.8092" gradientUnits="userSpaceOnUse">
<stop offset="0.29" stop-color="#121212"/>
<stop offset="1" stop-color="#4D4D4D"/>
</linearGradient>
<linearGradient id="paint1_linear" x1="142.415" y1="41.0391" x2="132.561" y2="22.5099" gradientUnits="userSpaceOnUse">
<stop stop-color="#4C4C4C"/>
<stop offset="0.78" stop-color="#0F0F0F"/>
</linearGradient>
<linearGradient id="paint2_linear" x1="108.022" y1="23.7984" x2="147.089" y2="23.7984" gradientUnits="userSpaceOnUse">
<stop stop-color="#1A1A1A"/>
<stop offset="1" stop-color="#00D172"/>
</linearGradient>
<linearGradient id="paint3_linear" x1="30.4625" y1="30.2259" x2="64.1354" y2="30.2259" gradientUnits="userSpaceOnUse">
<stop offset="0.26" stop-color="#1A1A1A"/>
<stop offset="1" stop-color="#05C46D"/>
</linearGradient>
</defs>
</svg>
