<svg width="165" height="34" viewBox="0 0 165 34" fill="none" xmlns="http://www.w3.org/2000/svg">
<path d="M36.9362 23.3943L39.9245 13.2957C40.0417 12.9266 40.2878 12.742 40.6628 12.742C41.0261 12.742 41.2546 12.8973 41.3483 13.2078L44.2927 23.4647C44.3161 23.5408 44.3278 23.6141 44.3278 23.6844C44.3278 23.8895 44.2575 24.0652 44.1169 24.2117C43.9763 24.3524 43.8151 24.4227 43.6335 24.4227C43.2468 24.4227 43.0007 24.244 42.8952 23.8865L42.2975 21.8826H38.9313L38.2809 24.0272C38.2634 24.1209 38.1901 24.2117 38.0612 24.2996C37.9323 24.3817 37.7917 24.4227 37.6393 24.4227C37.4225 24.4227 37.2438 24.3494 37.1032 24.2029C36.9626 24.0565 36.8923 23.8777 36.8923 23.6668C36.8923 23.5789 36.9069 23.4881 36.9362 23.3943ZM40.6452 16.1609L39.3796 20.3885H41.8669L40.6452 16.1609ZM49.4431 12.742H53.2839C53.7526 12.742 54.195 12.9412 54.611 13.3397C55.0329 13.7322 55.2438 14.2098 55.2438 14.7723C55.2438 14.9832 55.1677 15.1619 55.0153 15.3084C54.8688 15.4549 54.7048 15.5281 54.5231 15.5281C54.2712 15.5281 54.0983 15.4725 54.0046 15.3611C53.9108 15.244 53.82 15.0301 53.7321 14.7195C53.6501 14.409 53.4626 14.2537 53.1696 14.2537H49.5222C49.3464 14.2537 49.2585 14.3094 49.2585 14.4207C49.2585 14.491 49.2966 14.5731 49.3727 14.6668L54.8483 21.6717C55.112 22.0115 55.2438 22.3748 55.2438 22.7615C55.2438 23.201 55.0827 23.5877 54.7604 23.9217C54.444 24.2557 54.0895 24.4227 53.697 24.4227H49.7155C49.1882 24.4227 48.7282 24.2234 48.3356 23.825C47.9489 23.4207 47.7556 22.9783 47.7556 22.4979C47.7556 21.9471 48.0134 21.6717 48.529 21.6717C48.7282 21.6717 48.8981 21.7449 49.0388 21.8914C49.1794 22.032 49.2497 22.199 49.2497 22.3924C49.2497 22.5506 49.3024 22.6824 49.4079 22.7879C49.5192 22.8934 49.6569 22.9461 49.821 22.9461H53.4948C53.653 22.9461 53.7321 22.8846 53.7321 22.7615C53.7321 22.7029 53.694 22.6268 53.6179 22.533L48.1511 15.5281C47.8932 15.1942 47.7643 14.8309 47.7643 14.4383C47.7643 13.9813 47.9284 13.5858 48.2565 13.2518C48.5847 12.9119 48.9802 12.742 49.4431 12.742ZM65.3513 14.2361H60.1306V17.8309H62.3806C62.5798 17.8309 62.7526 17.9041 62.8991 18.0506C63.0456 18.1971 63.1188 18.3699 63.1188 18.5692C63.1188 18.7801 63.0456 18.9588 62.8991 19.1053C62.7585 19.2518 62.5856 19.325 62.3806 19.325H60.1306V22.9461H65.3688C65.5681 22.9461 65.7409 23.0193 65.8874 23.1658C66.0339 23.3065 66.1071 23.4793 66.1071 23.6844C66.1071 23.8895 66.0309 24.0652 65.8786 24.2117C65.7321 24.3524 65.5563 24.4227 65.3513 24.4227H58.654V12.742H65.3513C65.5563 12.742 65.7321 12.8182 65.8786 12.9705C66.0309 13.117 66.1071 13.2928 66.1071 13.4979C66.1071 13.6971 66.0309 13.8699 65.8786 14.0164C65.7321 14.1629 65.5563 14.2361 65.3513 14.2361Z" fill="white"/>
<path d="M115.36 23.3943L118.349 13.2957C118.466 12.9266 118.712 12.742 119.087 12.742C119.45 12.742 119.679 12.8973 119.772 13.2078L122.717 23.4647C122.74 23.5408 122.752 23.6141 122.752 23.6844C122.752 23.8895 122.682 24.0652 122.541 24.2117C122.4 24.3524 122.239 24.4227 122.058 24.4227C121.671 24.4227 121.425 24.244 121.319 23.8865L120.722 21.8826H117.355L116.705 24.0272C116.687 24.1209 116.614 24.2117 116.485 24.2996C116.356 24.3817 116.216 24.4227 116.063 24.4227C115.847 24.4227 115.668 24.3494 115.527 24.2029C115.387 24.0565 115.316 23.8777 115.316 23.6668C115.316 23.5789 115.331 23.4881 115.36 23.3943ZM119.069 16.1609L117.804 20.3885H120.291L119.069 16.1609ZM126.18 23.6844V13.4979C126.18 13.2869 126.25 13.1082 126.391 12.9617C126.537 12.8152 126.713 12.742 126.918 12.742C127.123 12.742 127.296 12.8152 127.436 12.9617C127.583 13.1024 127.656 13.2752 127.656 13.4803V16.9695L132.385 12.9354C132.549 12.8006 132.733 12.7332 132.938 12.7332C133.143 12.7332 133.316 12.8094 133.457 12.9617C133.598 13.1141 133.668 13.2899 133.668 13.4891C133.668 13.6942 133.589 13.8641 133.431 13.9988L128.069 18.5516L133.431 23.1834C133.577 23.3065 133.65 23.4647 133.65 23.658C133.65 23.8514 133.577 24.0272 133.431 24.1854C133.29 24.3436 133.114 24.4227 132.903 24.4227C132.704 24.4227 132.525 24.3553 132.367 24.2205L127.656 20.16V23.6844C127.656 23.8895 127.583 24.0652 127.436 24.2117C127.296 24.3524 127.123 24.4227 126.918 24.4227C126.719 24.4227 126.546 24.3524 126.399 24.2117C126.253 24.0652 126.18 23.8895 126.18 23.6844ZM143.775 14.2361H138.555V17.8309H140.805C141.004 17.8309 141.177 17.9041 141.323 18.0506C141.47 18.1971 141.543 18.3699 141.543 18.5692C141.543 18.7801 141.47 18.9588 141.323 19.1053C141.183 19.2518 141.01 19.325 140.805 19.325H138.555V22.9461H143.793C143.992 22.9461 144.165 23.0193 144.311 23.1658C144.458 23.3065 144.531 23.4793 144.531 23.6844C144.531 23.8895 144.455 24.0652 144.303 24.2117C144.156 24.3524 143.98 24.4227 143.775 24.4227H137.078V12.742H143.775C143.98 12.742 144.156 12.8182 144.303 12.9705C144.455 13.117 144.531 13.2928 144.531 13.4979C144.531 13.6971 144.455 13.8699 144.303 14.0164C144.156 14.1629 143.98 14.2361 143.775 14.2361ZM147.977 23.6844V12.742H153.197C153.801 12.742 154.319 12.9617 154.753 13.4012C155.192 13.8406 155.412 14.3651 155.412 14.9744V15.8182C155.412 16.4334 155.195 16.9608 154.762 17.4002C154.328 17.8338 153.807 18.0506 153.197 18.0506H152.257L155.28 23.2361C155.374 23.3885 155.421 23.5408 155.421 23.6932C155.421 23.8924 155.345 24.0652 155.192 24.2117C155.04 24.3524 154.867 24.4227 154.674 24.4227C154.381 24.4227 154.158 24.2908 154.006 24.0272L150.534 18.0506H149.471V23.6844C149.471 23.8895 149.394 24.0652 149.242 24.2117C149.096 24.3524 148.92 24.4227 148.715 24.4227C148.51 24.4227 148.334 24.3524 148.187 24.2117C148.047 24.0652 147.977 23.8895 147.977 23.6844ZM149.453 16.574H153.197C153.402 16.574 153.575 16.5037 153.716 16.3631C153.862 16.2166 153.935 16.0408 153.935 15.8358V14.9744C153.935 14.7693 153.862 14.5965 153.716 14.4559C153.575 14.3094 153.402 14.2361 153.197 14.2361H149.453V16.574Z" fill="white"/>
<path d="M84.1665 11.078V29.0427L79.0222 30.188V6.47L84.1665 11.078Z" fill="url(#paint0_linear)" stroke="#00D172" stroke-miterlimit="10"/>
<path d="M109.376 6.41638V30.188L104.594 29.1423V11.2657L109.376 6.41638Z" fill="url(#paint1_linear)" stroke="#00D172" stroke-miterlimit="10"/>
<path d="M79.0222 6.08315V2.89241C79.021 2.72245 79.0741 2.55592 79.175 2.41359C79.2758 2.27126 79.42 2.15943 79.5894 2.09203C79.7588 2.02463 79.946 2.00466 80.1276 2.0346C80.3093 2.06454 80.4773 2.14307 80.6108 2.26039C84.4451 5.6235 93.9436 13.97 94.6464 14.7399C102.165 6.99096 105.746 3.88066 108.146 2.04589C109.298 1.14847 110.745 0.633792 112.253 0.584473C113.761 0.535153 115.244 0.954052 116.463 1.77393C117.127 2.22042 117.676 2.79576 118.072 3.45931C113.606 1.12276 107.056 8.43886 107.056 8.43886L102.81 12.7634L94.7587 21.0218L86.0254 13.0545L81.376 8.58059L79.2967 6.66538C79.2101 6.59083 79.141 6.50069 79.0938 6.40053C79.0466 6.30037 79.0222 6.19235 79.0222 6.08315Z" fill="url(#paint2_linear)" stroke="#00D172" stroke-miterlimit="10"/>
<path d="M2.74755 19.5854C2.60357 18.8047 2.53537 18.0138 2.54377 17.222C2.52646 16.4733 2.58213 15.7246 2.71012 14.9851C2.73459 14.8597 2.70475 14.7306 2.627 14.6253C2.54925 14.52 2.42978 14.447 2.29425 14.422L1.91165 14.3837C1.77623 14.3638 1.65437 14.2965 1.57147 14.1959C1.48857 14.0953 1.45103 13.9691 1.46667 13.8436C1.72623 11.8723 2.56768 10.0043 3.89951 8.4427C3.98723 8.34522 4.11277 8.28309 4.24944 8.2695C4.38611 8.25591 4.52314 8.29193 4.63144 8.36992L4.87264 8.51931C4.93082 8.55725 4.99686 8.58377 5.06664 8.59722C5.13642 8.61066 5.20847 8.61073 5.27828 8.59744C5.3481 8.58415 5.4142 8.55777 5.47248 8.51995C5.53076 8.48213 5.57997 8.43367 5.61705 8.37758C6.52245 6.98145 7.78265 5.8089 9.28917 4.96085C9.39959 4.88946 9.47647 4.78213 9.50426 4.66054C9.53205 4.53895 9.50869 4.41217 9.43889 4.30584L9.30165 4.10283C9.23584 4.00236 9.21101 3.8836 9.23158 3.7678C9.25215 3.652 9.31679 3.54672 9.41393 3.47081C11.0788 2.22384 13.1019 1.45052 15.2361 1.24534C15.3703 1.23516 15.5036 1.27218 15.6093 1.34894C15.7151 1.4257 15.7853 1.53649 15.8058 1.65902C15.9431 2.42511 15.9597 2.25274 15.9597 2.25274C18.0274 1.73452 20.1957 1.65463 22.3017 2.01908C22.4226 2.0358 22.546 2.01371 22.6513 1.95652C22.7565 1.89932 22.8372 1.81051 22.8798 1.70499L23.0129 1.36791C23.0505 1.26922 23.122 1.18447 23.2165 1.12644C23.311 1.06841 23.4235 1.04023 23.5369 1.04615C25.9839 1.21196 28.3028 2.11828 30.1325 3.62403C30.2287 3.70297 30.2903 3.81156 30.3056 3.92937C30.3209 4.04718 30.2889 4.16609 30.2157 4.26371C30.1364 4.36738 30.1043 4.49546 30.126 4.62067C30.1478 4.74588 30.2217 4.85832 30.3322 4.93403C32.3151 6.23796 33.9376 7.95284 35.0689 9.94039C35.1143 10.015 35.1374 10.0994 35.1361 10.1849C35.1348 10.2705 35.109 10.3542 35.0613 10.4276C35.0137 10.501 34.9458 10.5616 34.8647 10.6031C34.7835 10.6447 34.6918 10.6658 34.599 10.6643H33.6674H33.1518C32.9908 10.6646 32.8325 10.6262 32.6925 10.553C32.5525 10.4798 32.4356 10.3743 32.3533 10.2468C30.7456 7.80248 28.342 5.88731 25.4844 4.77376C22.6268 3.66021 19.4608 3.40499 16.4366 4.0444C13.4124 4.68381 10.6842 6.18529 8.63995 8.33525C6.59571 10.4852 5.33959 13.1742 5.05026 16.0196C4.76094 18.8651 5.45315 21.7221 7.02843 24.1843C8.60371 26.6464 10.9818 28.5884 13.8245 29.7339C16.6672 30.8794 19.8296 31.1701 22.862 30.5646C25.8944 29.9591 28.6423 28.4883 30.7148 26.3614C30.8467 26.2266 31.0096 26.1206 31.1916 26.051C31.3736 25.9814 31.5701 25.9501 31.7669 25.9592L32.9937 26.0167C33.094 26.0166 33.1923 26.0427 33.2773 26.0918C33.3622 26.141 33.4303 26.2113 33.4738 26.2945C33.5173 26.3778 33.5343 26.4707 33.5229 26.5625C33.5116 26.6543 33.4723 26.7413 33.4096 26.8134C32.6084 27.7084 31.7049 28.5213 30.7148 29.2381C30.6557 29.2796 30.6067 29.332 30.571 29.392C30.5353 29.452 30.5136 29.5183 30.5073 29.5865C30.501 29.6546 30.5103 29.7233 30.5346 29.788C30.5589 29.8526 30.5976 29.9119 30.6482 29.962L30.8063 30.1152C30.8565 30.1642 30.8952 30.2221 30.92 30.2855C30.9449 30.3488 30.9553 30.4162 30.9506 30.4834C30.9459 30.5506 30.9262 30.6162 30.8928 30.6761C30.8594 30.736 30.8129 30.7889 30.7563 30.8315C28.9775 32.1082 26.8803 32.9548 24.6555 33.2945C24.5213 33.3147 24.3837 33.2861 24.2719 33.2146C24.1602 33.1431 24.083 33.0344 24.0567 32.9114C24.0567 32.8387 24.0276 32.7697 24.0109 32.7008C23.998 32.6379 23.9717 32.5781 23.9334 32.5247C23.8952 32.4713 23.8458 32.4255 23.7881 32.3899C23.7305 32.3542 23.6657 32.3295 23.5976 32.3171C23.5294 32.3047 23.4593 32.3049 23.3913 32.3177C21.3611 32.7489 19.2589 32.81 17.2032 32.4977C17.0709 32.4772 16.9351 32.5027 16.8222 32.5693C16.7092 32.6358 16.6271 32.7386 16.5918 32.8578L16.5336 33.0685C16.4992 33.1879 16.4171 33.2909 16.3037 33.3569C16.1904 33.423 16.0542 33.4472 15.9223 33.4247C13.7796 33.0761 11.7356 32.3321 9.91298 31.2375C9.79987 31.1646 9.72106 31.0548 9.6925 30.9303C9.66393 30.8059 9.68774 30.6761 9.7591 30.5672C10.1999 29.8892 10.1084 30.0233 10.1084 30.0233L10.0003 29.9543C8.39816 28.9779 6.99709 27.7471 5.86241 26.3193C5.7798 26.2209 5.66045 26.1542 5.52751 26.1323C5.39457 26.1103 5.25752 26.1347 5.14295 26.2005L4.96829 26.3078C4.85787 26.3755 4.72386 26.4024 4.59288 26.3832C4.4619 26.3641 4.34353 26.3002 4.26131 26.2044C2.83797 24.5218 1.93294 22.5173 1.64134 20.4013C1.63127 20.2779 1.67183 20.1555 1.755 20.0584C1.83816 19.9612 1.95787 19.8963 2.09047 19.8765C2.94717 19.7463 2.73091 19.7463 2.73091 19.7463" fill="url(#paint3_linear)"/>
<path d="M2.74755 19.5854C2.60357 18.8047 2.53537 18.0138 2.54377 17.222C2.52646 16.4733 2.58213 15.7246 2.71012 14.9851C2.73459 14.8597 2.70475 14.7306 2.627 14.6253C2.54925 14.52 2.42978 14.447 2.29425 14.422L1.91165 14.3837C1.77623 14.3638 1.65437 14.2965 1.57147 14.1959C1.48857 14.0953 1.45103 13.9691 1.46667 13.8436C1.72623 11.8723 2.56768 10.0043 3.89951 8.4427C3.98723 8.34522 4.11277 8.28309 4.24944 8.2695C4.38611 8.25591 4.52314 8.29193 4.63144 8.36992L4.87264 8.51931C4.93082 8.55725 4.99686 8.58377 5.06664 8.59722C5.13642 8.61066 5.20846 8.61073 5.27828 8.59744C5.3481 8.58415 5.4142 8.55777 5.47248 8.51995C5.53076 8.48213 5.57997 8.43367 5.61705 8.37758C6.52245 6.98145 7.78265 5.8089 9.28917 4.96085C9.39959 4.88946 9.47647 4.78213 9.50426 4.66054C9.53205 4.53895 9.50869 4.41217 9.43889 4.30584L9.30165 4.10283C9.23584 4.00236 9.21101 3.8836 9.23158 3.7678C9.25215 3.652 9.31679 3.54672 9.41393 3.47081C11.0788 2.22384 13.1019 1.45052 15.2361 1.24534C15.3703 1.23516 15.5036 1.27218 15.6093 1.34894C15.7151 1.4257 15.7853 1.53649 15.8058 1.65902C15.9431 2.42511 15.9597 2.25274 15.9597 2.25274C18.0274 1.73452 20.1957 1.65463 22.3017 2.01908C22.4226 2.0358 22.546 2.01371 22.6513 1.95652C22.7565 1.89932 22.8372 1.81051 22.8798 1.70499L23.0129 1.36791C23.0505 1.26922 23.122 1.18447 23.2165 1.12644C23.311 1.06841 23.4235 1.04023 23.5369 1.04615C25.9839 1.21196 28.3028 2.11828 30.1325 3.62403C30.2287 3.70297 30.2903 3.81156 30.3056 3.92937C30.3209 4.04718 30.2889 4.16609 30.2157 4.26371V4.26371C30.1364 4.36738 30.1043 4.49546 30.126 4.62067C30.1478 4.74588 30.2217 4.85832 30.3322 4.93403C32.3151 6.23796 33.9376 7.95284 35.0689 9.94039C35.1143 10.015 35.1374 10.0994 35.1361 10.1849C35.1348 10.2705 35.109 10.3542 35.0613 10.4276C35.0137 10.501 34.9458 10.5616 34.8647 10.6031C34.7835 10.6447 34.6918 10.6658 34.599 10.6643H33.6674H33.1518C32.9908 10.6646 32.8325 10.6262 32.6925 10.553C32.5525 10.4798 32.4356 10.3743 32.3533 10.2468C30.7456 7.80248 28.342 5.88731 25.4844 4.77376C22.6268 3.66021 19.4608 3.40499 16.4366 4.0444C13.4124 4.68381 10.6842 6.18529 8.63995 8.33525C6.59571 10.4852 5.33959 13.1742 5.05026 16.0196C4.76094 18.8651 5.45315 21.7221 7.02843 24.1843C8.60371 26.6464 10.9818 28.5884 13.8245 29.7339C16.6672 30.8794 19.8296 31.1701 22.862 30.5646C25.8944 29.9591 28.6423 28.4883 30.7148 26.3614C30.8467 26.2266 31.0096 26.1206 31.1916 26.051C31.3736 25.9814 31.5701 25.9501 31.7669 25.9592L32.9937 26.0167C33.094 26.0166 33.1923 26.0427 33.2773 26.0918C33.3622 26.141 33.4303 26.2113 33.4738 26.2945C33.5173 26.3778 33.5343 26.4707 33.5229 26.5625C33.5116 26.6543 33.4723 26.7413 33.4096 26.8134C32.6084 27.7084 31.7049 28.5213 30.7148 29.2381C30.6557 29.2796 30.6067 29.332 30.571 29.392C30.5353 29.452 30.5136 29.5183 30.5073 29.5864C30.501 29.6546 30.5103 29.7233 30.5346 29.788C30.5589 29.8526 30.5976 29.9119 30.6482 29.962L30.8063 30.1152C30.8565 30.1642 30.8952 30.2221 30.92 30.2855C30.9449 30.3488 30.9553 30.4162 30.9506 30.4834C30.9459 30.5506 30.9262 30.6162 30.8928 30.6761C30.8594 30.736 30.8129 30.7889 30.7563 30.8315C28.9775 32.1082 26.8803 32.9548 24.6555 33.2945C24.5213 33.3147 24.3837 33.2861 24.2719 33.2146C24.1602 33.1431 24.083 33.0344 24.0567 32.9114C24.0567 32.8387 24.0276 32.7697 24.0109 32.7008C23.998 32.6379 23.9717 32.5781 23.9334 32.5247C23.8952 32.4713 23.8458 32.4255 23.7881 32.3899C23.7305 32.3542 23.6657 32.3295 23.5976 32.3171C23.5294 32.3047 23.4593 32.3049 23.3913 32.3177C21.3611 32.7489 19.2589 32.81 17.2032 32.4977C17.0709 32.4772 16.9351 32.5027 16.8222 32.5693C16.7092 32.6358 16.6271 32.7386 16.5918 32.8578L16.5336 33.0685C16.4992 33.1879 16.4171 33.2909 16.3037 33.3569C16.1904 33.423 16.0542 33.4472 15.9223 33.4247C13.7796 33.0761 11.7356 32.3321 9.91298 31.2375C9.79987 31.1646 9.72106 31.0548 9.6925 30.9303C9.66393 30.8059 9.68774 30.6761 9.7591 30.5672C10.1999 29.8892 10.1084 30.0233 10.1084 30.0233L10.0003 29.9543C8.39816 28.9779 6.99709 27.7471 5.86241 26.3193C5.7798 26.2209 5.66045 26.1542 5.52751 26.1323C5.39457 26.1103 5.25752 26.1347 5.14295 26.2005L4.96829 26.3078C4.85787 26.3755 4.72386 26.4024 4.59288 26.3832C4.4619 26.3641 4.34353 26.3002 4.26131 26.2044C2.83797 24.5218 1.93294 22.5173 1.64134 20.4013C1.63127 20.2779 1.67183 20.1555 1.755 20.0584C1.83816 19.9612 1.95787 19.8963 2.09047 19.8765C2.94717 19.7463 2.73091 19.7463 2.73091 19.7463" stroke="#00D172" stroke-miterlimit="10"/>
<defs>
<linearGradient id="paint0_linear" x1="86.2583" y1="10.3157" x2="76.4232" y2="28.8092" gradientUnits="userSpaceOnUse">
<stop offset="0.29" stop-color="#121212"/>
<stop offset="1" stop-color="#4D4D4D"/>
</linearGradient>
<linearGradient id="paint1_linear" x1="113.415" y1="28.0391" x2="103.561" y2="9.50992" gradientUnits="userSpaceOnUse">
<stop stop-color="#4C4C4C"/>
<stop offset="0.78" stop-color="#0F0F0F"/>
</linearGradient>
<linearGradient id="paint2_linear" x1="79.0222" y1="10.7984" x2="118.089" y2="10.7984" gradientUnits="userSpaceOnUse">
<stop stop-color="#1A1A1A"/>
<stop offset="1" stop-color="#00D172"/>
</linearGradient>
<linearGradient id="paint3_linear" x1="1.46251" y1="17.2259" x2="35.1354" y2="17.2259" gradientUnits="userSpaceOnUse">
<stop offset="0.26" stop-color="#1A1A1A"/>
<stop offset="1" stop-color="#05C46D"/>
</linearGradient>
</defs>
</svg>
