<svg width="91" height="17" viewBox="0 0 91 17" fill="none" xmlns="http://www.w3.org/2000/svg">
<path d="M9.60922 0L11.6872 5.87336L18.4115 5.87336L12.9714 9.50329L15.0493 15.3766L9.60922 11.7467L4.1691 15.3766L6.24704 9.50329L0.806929 5.87336L7.53128 5.87336L9.60922 0Z" fill="#FFFF92"/>
<path d="M28.6642 1.42533L30.3961 6.04875L30.5177 6.37336H30.8644L36.253 6.37336L31.9576 9.08028L31.6131 9.29737L31.7559 9.67869L33.4356 14.1626L28.9308 11.3237L28.6642 11.1557L28.3976 11.3237L23.8928 14.1626L25.5725 9.67869L25.7153 9.29737L25.3708 9.08028L21.0754 6.37336L26.464 6.37336H26.8107L26.9323 6.04875L28.6642 1.42533Z" stroke="#8B8B8B" stroke-opacity="0.44"/>
<path d="M45.5414 1.49911L47.148 6.04012L47.2659 6.37336H47.6194L52.6935 6.37336L48.6261 9.08738L48.3025 9.3033L48.4322 9.67006L50.0089 14.1266L45.819 11.3308L45.5414 11.1456L45.2639 11.3308L41.074 14.1266L42.6506 9.67006L42.7804 9.3033L42.4568 9.08738L38.3893 6.37336L43.4635 6.37336H43.817L43.9349 6.04012L45.5414 1.49911Z" stroke="#8B8B8B" stroke-opacity="0.44"/>
<path d="M64.052 1.49911L65.6586 6.04012L65.7765 6.37336H66.1299L71.2041 6.37336L67.1367 9.08738L66.813 9.3033L66.9428 9.67006L68.5195 14.1266L64.3295 11.3308L64.052 11.1456L63.7745 11.3308L59.5845 14.1266L61.1612 9.67006L61.2909 9.3033L60.9673 9.08738L56.8999 6.37336L61.9741 6.37336H62.3275L62.4454 6.04012L64.052 1.49911Z" stroke="#8B8B8B" stroke-opacity="0.44"/>
<path d="M81.4737 1.49911L83.0803 6.04012L83.1982 6.37336H83.5516L88.6258 6.37336L84.5583 9.08738L84.2347 9.3033L84.3645 9.67006L85.9412 14.1266L81.7512 11.3308L81.4737 11.1456L81.1962 11.3308L77.0062 14.1266L78.5829 9.67006L78.7126 9.3033L78.389 9.08738L74.3216 6.37336L79.3957 6.37336H79.7492L79.8671 6.04012L81.4737 1.49911Z" stroke="#8B8B8B" stroke-opacity="0.44"/>
</svg>
