<svg width="29" height="30" viewBox="0 0 29 30" fill="none" xmlns="http://www.w3.org/2000/svg">
<g clip-path="url(#clip0)">
<path d="M14.35 2.6087C12.3935 2.6087 10.865 3.3288 9.76443 4.76902C8.66388 6.20924 8.11361 8.05027 8.11361 10.2921C8.10002 13.0774 8.99676 15.2853 10.8038 16.9158C11.0348 17.1332 11.1163 17.4117 11.0484 17.7514L10.5796 18.7296C10.4302 19.0557 10.2094 19.3105 9.91728 19.4939C9.62516 19.6773 9.01035 19.9389 8.07285 20.2785C8.03209 20.2921 7.17271 20.5707 5.49472 21.1141C3.81674 21.6576 2.92339 21.9565 2.8147 22.0109C1.67339 22.4864 0.92611 22.9823 0.572849 23.4986C0.192415 24.3546 0.00219727 26.5217 0.00219727 30H28.6979C28.6979 26.5217 28.5076 24.3546 28.1272 23.4986C27.7739 22.9823 27.0267 22.4864 25.8854 22.0109C25.7767 21.9565 24.8833 21.6576 23.2053 21.1141C21.5273 20.5707 20.668 20.2921 20.6272 20.2785C19.6897 19.9389 19.0749 19.6773 18.7828 19.4939C18.4906 19.3105 18.2699 19.0557 18.1204 18.7296L17.6517 17.7514C17.5837 17.4117 17.6652 17.1332 17.8962 16.9158C19.7033 15.2853 20.6 13.0774 20.5864 10.2921C20.5864 8.05027 20.0362 6.20924 18.9356 4.76902C17.8351 3.3288 16.3065 2.6087 14.35 2.6087Z" fill="#00D172"/>
</g>
<defs>
<clipPath id="clip0">
<rect width="28.7" height="30" fill="white"/>
</clipPath>
</defs>
</svg>
