<svg width="24" height="22" viewBox="0 0 24 22" fill="none" xmlns="http://www.w3.org/2000/svg">
<path d="M12 0C10.3636 0 9.08523 0.578373 8.16477 1.73512C7.24432 2.89187 6.78409 4.37054 6.78409 6.17113C6.77273 8.40823 7.52273 10.1815 9.03409 11.4911C9.22727 11.6657 9.29545 11.8894 9.23864 12.1622L8.84659 12.9479C8.72159 13.2098 8.53693 13.4144 8.29261 13.5618C8.0483 13.7091 7.53409 13.9191 6.75 14.192C6.71591 14.2029 5.99716 14.4266 4.59375 14.8631C3.19034 15.2996 2.44318 15.5397 2.35227 15.5833C1.39773 15.9653 0.772727 16.3636 0.477273 16.7783C0.159091 17.4658 0 19.2064 0 22H24C24 19.2064 23.8409 17.4658 23.5227 16.7783C23.2273 16.3636 22.6023 15.9653 21.6477 15.5833C21.5568 15.5397 20.8097 15.2996 19.4062 14.8631C18.0028 14.4266 17.2841 14.2029 17.25 14.192C16.4659 13.9191 15.9517 13.7091 15.7074 13.5618C15.4631 13.4144 15.2784 13.2098 15.1534 12.9479L14.7614 12.1622C14.7045 11.8894 14.7727 11.6657 14.9659 11.4911C16.4773 10.1815 17.2273 8.40823 17.2159 6.17113C17.2159 4.37054 16.7557 2.89187 15.8352 1.73512C14.9148 0.578373 13.6364 0 12 0Z" fill="#00D172"/>
</svg>
