<svg width="21" height="20" viewBox="0 0 21 20" fill="none" xmlns="http://www.w3.org/2000/svg">
<path d="M10.5 0C9.06818 0 7.94957 0.525794 7.14418 1.57738C6.33878 2.62897 5.93608 3.97321 5.93608 5.61012C5.92614 7.64385 6.58239 9.25595 7.90483 10.4464C8.07386 10.6052 8.13352 10.8085 8.08381 11.0565L7.74077 11.7708C7.63139 12.0089 7.46982 12.1949 7.25604 12.3289C7.04226 12.4628 6.59233 12.6538 5.90625 12.9018C5.87642 12.9117 5.24751 13.1151 4.01953 13.5119C2.79155 13.9087 2.13778 14.127 2.05824 14.1667C1.22301 14.5139 0.676136 14.876 0.417614 15.253C0.139205 15.878 0 17.4603 0 20H21C21 17.4603 20.8608 15.878 20.5824 15.253C20.3239 14.876 19.777 14.5139 18.9418 14.1667C18.8622 14.127 18.2085 13.9087 16.9805 13.5119C15.7525 13.1151 15.1236 12.9117 15.0938 12.9018C14.4077 12.6538 13.9577 12.4628 13.744 12.3289C13.5302 12.1949 13.3686 12.0089 13.2592 11.7708L12.9162 11.0565C12.8665 10.8085 12.9261 10.6052 13.0952 10.4464C14.4176 9.25595 15.0739 7.64385 15.0639 5.61012C15.0639 3.97321 14.6612 2.62897 13.8558 1.57738C13.0504 0.525794 11.9318 0 10.5 0Z" fill="#1E2832"/>
</svg>
