<svg width="19" height="19" viewBox="0 0 19 19" fill="none" xmlns="http://www.w3.org/2000/svg">
<path d="M10.6606 12.252C9.28112 13.2328 7.58356 13.6595 5.90432 13.4476C4.22508 13.2357 2.68671 12.4007 1.5941 11.1081C0.501496 9.81543 -0.06561 8.15947 0.00517861 6.4684C0.0759673 4.77732 0.779484 3.17455 1.9763 1.97774C3.17312 0.780918 4.77589 0.0774016 6.46696 0.00661293C8.15804 -0.0641757 9.814 0.50293 11.1066 1.59554C12.3993 2.68815 13.2343 4.22651 13.4462 5.90576C13.658 7.585 13.2313 9.28256 12.2506 10.662L17.6701 16.08C17.7806 16.183 17.8693 16.3072 17.9307 16.4452C17.9922 16.5832 18.0253 16.7322 18.028 16.8832C18.0306 17.0343 18.0028 17.1843 17.9463 17.3244C17.8897 17.4645 17.8055 17.5917 17.6986 17.6986C17.5918 17.8054 17.4645 17.8896 17.3245 17.9462C17.1844 18.0028 17.0343 18.0306 16.8833 18.0279C16.7322 18.0252 16.5833 17.9922 16.4453 17.9307C16.3073 17.8692 16.1831 17.7805 16.0801 17.67L10.6606 12.252ZM11.2501 6.75C11.2501 5.55653 10.776 4.41194 9.93205 3.56802C9.08814 2.72411 7.94354 2.25 6.75007 2.25C5.55659 2.25 4.412 2.72411 3.56809 3.56802C2.72417 4.41194 2.25007 5.55653 2.25007 6.75C2.25007 7.94348 2.72417 9.08807 3.56809 9.93198C4.412 10.7759 5.55659 11.25 6.75007 11.25C7.94354 11.25 9.08814 10.7759 9.93205 9.93198C10.776 9.08807 11.2501 7.94348 11.2501 6.75Z" fill="#00D172"/>
</svg>
