<svg width="91" height="17" viewBox="0 0 91 17" fill="none" xmlns="http://www.w3.org/2000/svg">
<path d="M9.60922 0L11.6872 5.87336L18.4115 5.87336L12.9714 9.50329L15.0493 15.3766L9.60922 11.7467L4.1691 15.3766L6.24704 9.50329L0.806929 5.87336L7.53128 5.87336L9.60922 0Z" fill="#FFFF92"/>
<path d="M28.6642 0L30.8644 5.87336L37.9843 5.87336L32.2242 9.50329L34.4243 15.3766L28.6642 11.7467L22.9041 15.3766L25.1043 9.50329L19.3441 5.87336L26.464 5.87336L28.6642 0Z" fill="#FFFF92"/>
<path d="M45.5414 0L47.6194 5.87336L54.3437 5.87336L48.9036 9.50329L50.9816 15.3766L45.5414 11.7467L40.1013 15.3766L42.1793 9.50329L36.7391 5.87336L43.4635 5.87336L45.5414 0Z" fill="#FFFF92"/>
<path d="M64.052 1.49911L65.6586 6.04012L65.7765 6.37336H66.1299L71.2041 6.37336L67.1367 9.08738L66.813 9.3033L66.9428 9.67006L68.5195 14.1266L64.3295 11.3308L64.052 11.1456L63.7745 11.3308L59.5845 14.1266L61.1612 9.67006L61.2909 9.3033L60.9673 9.08738L56.8999 6.37336L61.9741 6.37336H62.3275L62.4454 6.04012L64.052 1.49911Z" stroke="#8B8B8B" stroke-opacity="0.44"/>
<path d="M81.4737 1.49911L83.0803 6.04012L83.1982 6.37336H83.5516L88.6258 6.37336L84.5583 9.08738L84.2347 9.3033L84.3645 9.67006L85.9412 14.1266L81.7512 11.3308L81.4737 11.1456L81.1962 11.3308L77.0062 14.1266L78.5829 9.67006L78.7126 9.3033L78.389 9.08738L74.3216 6.37336L79.3957 6.37336H79.7492L79.8671 6.04012L81.4737 1.49911Z" stroke="#8B8B8B" stroke-opacity="0.44"/>
</svg>
