<svg width="18" height="18" viewBox="0 0 18 18" fill="none" xmlns="http://www.w3.org/2000/svg">
<rect width="18" height="18" rx="9" fill="#040505" fill-opacity="0.26"/>
<path d="M6.98565 10.7573L13.6022 4.39476C13.7327 4.26961 13.8875 4.17033 14.0579 4.1026C14.2283 4.03486 14.411 4 14.5954 4C14.7799 4 14.9625 4.03486 15.1329 4.1026C15.3033 4.17033 15.4582 4.26961 15.5886 4.39476C15.719 4.51991 15.8225 4.66849 15.8931 4.83202C15.9637 4.99554 16 5.1708 16 5.34779C16 5.52479 15.9637 5.70005 15.8931 5.86357C15.8225 6.02709 15.719 6.17567 15.5886 6.30083L7.97884 13.6029C7.84879 13.7288 7.69408 13.8286 7.52362 13.8968C7.35315 13.9649 7.17032 14 6.98565 14C6.80098 14 6.61815 13.9649 6.44768 13.8968C6.27722 13.8286 6.1225 13.7288 5.99246 13.6029L2.41139 10.1667C2.28096 10.0415 2.1775 9.89292 2.10692 9.7294C2.03633 9.56588 2 9.39062 2 9.21362C2 8.85617 2.14798 8.51335 2.41139 8.26059C2.6748 8.00783 3.03206 7.86583 3.40458 7.86583C3.7771 7.86583 4.13436 8.00783 4.39777 8.26059L6.98565 10.7573Z" fill="white"/>
</svg>
