<svg width="23" height="23" viewBox="0 0 23 23" fill="none" xmlns="http://www.w3.org/2000/svg">
<path d="M11.5 0C5.14872 0 0 5.14872 0 11.5C0 17.8513 5.14872 23 11.5 23C17.8513 23 23 17.8513 23 11.5C23 5.14872 17.8513 0 11.5 0ZM14.6319 4.59747C15.0675 4.59624 15.5043 4.67 15.9192 4.81927L13.6296 7.10888L14.2613 8.73868L15.8911 9.37039L18.1807 7.08082C18.6584 8.40838 18.3657 9.952 17.3019 11.0157C16.2382 12.0794 14.696 12.3722 13.3685 11.8945L6.85898 18.4025L4.59747 16.141L11.1055 9.63154C10.6279 8.304 10.9206 6.76179 11.9843 5.69806C12.7156 4.96675 13.6734 4.60017 14.6319 4.59747ZM6.3747 15.6862C6.11512 15.9457 6.11512 16.3657 6.3747 16.6253C6.63425 16.8849 7.05429 16.8849 7.31385 16.6253C7.5734 16.3657 7.5734 15.9457 7.31385 15.6862C7.0325 15.4304 6.61712 15.451 6.3747 15.6862Z" fill="#00D172"/>
</svg>
