<svg xmlns="http://www.w3.org/2000/svg" xmlns:xlink="http://www.w3.org/1999/xlink" viewBox="0 0 226.58 226.58"><defs><style>.cls-1{fill:url(#Gradiente_sem_nome_74);}.cls-2,.cls-3,.cls-4,.cls-5{stroke:#00d172;stroke-miterlimit:10;}.cls-2{fill:url(#Gradiente_sem_nome_66);}.cls-3{fill:url(#Gradiente_sem_nome_64);}.cls-4{stroke-width:2px;fill:url(#Gradiente_sem_nome_84);}.cls-5{stroke-width:5px;fill:url(#Gradiente_sem_nome_90);}</style><linearGradient id="Gradiente_sem_nome_74" x1="4.44" y1="113.29" x2="231.02" y2="113.29" gradientUnits="userSpaceOnUse"><stop offset="0.5" stop-color="#1a1a1a"/><stop offset="1" stop-color="#676766"/></linearGradient><linearGradient id="Gradiente_sem_nome_66" x1="89.15" y1="101.15" x2="59.2" y2="153.03" gradientUnits="userSpaceOnUse"><stop offset="0.29" stop-color="#121212"/><stop offset="1" stop-color="#4d4d4d"/></linearGradient><linearGradient id="Gradiente_sem_nome_64" x1="162.08" y1="152.84" x2="132.07" y2="100.85" gradientUnits="userSpaceOnUse"><stop offset="0" stop-color="#4c4c4c"/><stop offset="0.78" stop-color="#0f0f0f"/></linearGradient><linearGradient id="Gradiente_sem_nome_84" x1="69.71" y1="102.56" x2="174.64" y2="102.56" gradientUnits="userSpaceOnUse"><stop offset="0" stop-color="#1a1a1a"/><stop offset="1" stop-color="#00d172"/></linearGradient><linearGradient id="Gradiente_sem_nome_90" x1="18.22" y1="113.29" x2="193.39" y2="113.29" gradientUnits="userSpaceOnUse"><stop offset="0.26" stop-color="#1a1a1a"/><stop offset="1" stop-color="#05c46d"/></linearGradient></defs><title>Ativo 6Logo</title><g id="Camada_2" data-name="Camada 2"><g id="Camada_2-2" data-name="Camada 2"><circle class="cls-1" cx="113.29" cy="113.29" r="113.29"/></g><g id="Camada_3" data-name="Camada 3"><polygon class="cls-2" points="83.53 103.38 83.53 155.76 69.71 159.1 69.71 89.93 83.53 103.38"/><polygon class="cls-3" points="151.23 89.79 151.23 159.1 138.39 156.05 138.39 103.92 151.23 89.79"/><path class="cls-4" d="M69.71,88.81V79.52A2.53,2.53,0,0,1,74,77.68c10.3,9.81,35.81,34.14,37.7,36.39,20.2-22.61,29.8-31.67,36.26-37a18.09,18.09,0,0,1,22.37-.79,15,15,0,0,1,4.33,4.92c-12-6.82-29.59,14.48-29.59,14.48L133.6,108.29,112,132.37,88.57,109.14,76,96.09l-5.63-5.61A2.33,2.33,0,0,1,69.71,88.81Z"/></g><g id="Camada_1-2" data-name="Camada 1"><g id="Camada_1-3" data-name="Camada 1"><path class="cls-5" d="M24.9,126.62a74.42,74.42,0,0,1-1-13.35,71.17,71.17,0,0,1,.85-12.65,2.75,2.75,0,0,0-2.27-3.18l-1.89-.31a2.76,2.76,0,0,1-2.3-3.07C19,88.4,21.57,74.75,30.9,63.57a2.76,2.76,0,0,1,3.81-.41L36,64a2.76,2.76,0,0,0,3.91-.88A56.62,56.62,0,0,1,58.93,43.9a2.76,2.76,0,0,0,.77-3.7L59,39.05a2.75,2.75,0,0,1,.56-3.54A57.35,57.35,0,0,1,89.87,22.92a2.78,2.78,0,0,1,3,2.3c.73,4.4.81,3.38.81,3.38,12.44-3.07,20.13-3.22,33-1.31a2.75,2.75,0,0,0,3-1.79l.69-1.89a2.78,2.78,0,0,1,2.8-1.82,58,58,0,0,1,34.25,14.56,2.77,2.77,0,0,1,.41,3.62h0a2.75,2.75,0,0,0,.63,3.78C178.85,51.37,185.92,59.3,193,72.12a2.76,2.76,0,0,1-2.43,4.11l-4.86-.06-2.67,0A4.73,4.73,0,0,1,179,74a76.74,76.74,0,1,0-8.58,90.91,6.9,6.9,0,0,1,5.46-2.27l6.4.33a2.76,2.76,0,0,1,2,4.49,89.18,89.18,0,0,1-14.07,13.73,2.75,2.75,0,0,0-.29,4.05l.83.88a2.76,2.76,0,0,1-.27,4A70.42,70.42,0,0,1,138.83,204a2.77,2.77,0,0,1-3.18-2.18c-.08-.4-.16-.8-.23-1.18a2.76,2.76,0,0,0-3.26-2.17,82.94,82.94,0,0,1-32.21,1,2.75,2.75,0,0,0-3.14,2l-.31,1.19a2.75,2.75,0,0,1-3.14,2c-5.48-1-18.93-4.07-31.14-12.32a2.83,2.83,0,0,1-.85-3.81c2.3-3.84,1.83-3.1,1.83-3.1l-.56-.38a84.43,84.43,0,0,1-21.57-20.58,2.75,2.75,0,0,0-3.7-.62l-.91.6a2.76,2.76,0,0,1-3.69-.6c-3.58-4.58-12-16.79-13.67-32.67a2.78,2.78,0,0,1,2.31-3c4.54-.74,3.41-.7,3.41-.7"/></g></g></g></svg>