<svg width="227" height="227" viewBox="0 0 227 227" fill="none" xmlns="http://www.w3.org/2000/svg">
<g clip-path="url(#clip0)">
<path d="M113.29 226.58C175.858 226.58 226.58 175.858 226.58 113.29C226.58 50.7217 175.858 0 113.29 0C50.7217 0 0 50.7217 0 113.29C0 175.858 50.7217 226.58 113.29 226.58Z" fill="url(#paint0_linear)"/>
<path d="M83.53 103.38V155.76L69.71 159.1V89.93L83.53 103.38Z" fill="url(#paint1_linear)" stroke="#00D172" stroke-miterlimit="10"/>
<path d="M151.23 89.79V159.1L138.39 156.05V103.92L151.23 89.79Z" fill="url(#paint2_linear)" stroke="#00D172" stroke-miterlimit="10"/>
<path d="M69.71 88.81V79.52C69.7056 79.0212 69.8487 78.5321 70.1214 78.1144C70.3941 77.6967 70.7842 77.3689 71.2427 77.1722C71.7011 76.9756 72.2075 76.9189 72.6981 77.0092C73.1887 77.0996 73.6417 77.333 74 77.68C84.3 87.49 109.81 111.82 111.7 114.07C131.9 91.46 141.5 82.4 147.96 77.07C151.059 74.4471 154.951 72.943 159.008 72.7997C163.066 72.6564 167.054 73.8822 170.33 76.28C172.118 77.5808 173.597 79.2609 174.66 81.2C162.66 74.38 145.07 95.68 145.07 95.68L133.6 108.29L112 132.37L88.57 109.14L76 96.09L70.37 90.48C70.155 90.2591 69.986 89.9978 69.8727 89.7111C69.7594 89.4245 69.7041 89.1182 69.71 88.81Z" fill="url(#paint3_linear)" stroke="#00D172" stroke-width="2" stroke-miterlimit="10"/>
<path d="M24.9 126.62C24.1662 122.209 23.8316 117.741 23.9 113.27C23.8064 109.036 24.0909 104.803 24.75 100.62C24.8115 100.262 24.8014 99.8953 24.7204 99.5411C24.6393 99.187 24.489 98.8524 24.2779 98.5568C24.0668 98.2611 23.7993 98.0102 23.4907 97.8185C23.1821 97.6268 22.8386 97.4981 22.48 97.44L20.59 97.13C19.8834 97.0163 19.2486 96.6326 18.8195 96.0599C18.3903 95.4871 18.2005 94.77 18.29 94.06C19 88.4 21.57 74.75 30.9 63.57C31.3584 63.0216 32.0116 62.6725 32.7222 62.596C33.4328 62.5195 34.1454 62.7217 34.71 63.16L36 64C36.3114 64.209 36.6621 64.3524 37.0308 64.4214C37.3995 64.4903 37.7783 64.4834 38.1443 64.4011C38.5102 64.3187 38.8555 64.1626 39.1591 63.9424C39.4626 63.7221 39.7181 63.4423 39.91 63.12C44.6046 55.2712 51.1307 48.6765 58.93 43.9C59.5049 43.4969 59.9045 42.8898 60.0476 42.2024C60.1906 41.515 60.0663 40.799 59.7 40.2L59 39.05C58.6547 38.4904 58.5213 37.8257 58.6241 37.1762C58.7268 36.5268 59.0588 35.9356 59.56 35.51C68.2211 28.4502 78.7559 24.0743 89.87 22.92C90.5679 22.8545 91.2648 23.0551 91.8211 23.4816C92.3774 23.9081 92.752 24.529 92.87 25.22C93.6 29.62 93.68 28.6 93.68 28.6C106.12 25.53 113.81 25.38 126.68 27.29C127.31 27.3854 127.954 27.259 128.501 26.9325C129.048 26.6061 129.465 26.0997 129.68 25.5L130.37 23.61C130.577 23.0443 130.961 22.5609 131.466 22.2327C131.971 21.9045 132.569 21.7491 133.17 21.79C145.876 22.7493 157.913 27.8662 167.42 36.35C167.914 36.8018 168.228 37.4175 168.304 38.0831C168.379 38.7487 168.211 39.419 167.83 39.97C167.423 40.5582 167.261 41.282 167.378 41.9878C167.496 42.6936 167.884 43.3257 168.46 43.75C178.85 51.37 185.92 59.3 193 72.12C193.236 72.5417 193.358 73.0181 193.353 73.5016C193.347 73.985 193.215 74.4586 192.969 74.8748C192.722 75.2909 192.371 75.6352 191.95 75.873C191.529 76.1109 191.053 76.234 190.57 76.23L185.71 76.17H183.04C182.238 76.1806 181.446 75.9869 180.739 75.6073C180.033 75.2277 179.434 74.6746 179 74C170.655 60.1759 158.162 49.3366 143.299 43.0248C128.436 36.713 111.961 35.2504 96.2183 38.8452C80.4759 42.4401 66.2687 50.9092 55.6188 63.0469C44.969 75.1847 38.4193 90.3726 36.902 106.449C35.3848 122.525 38.9773 138.67 47.1682 152.586C55.3591 166.502 67.731 177.48 82.5229 183.956C97.3147 190.433 113.773 192.078 129.554 188.659C145.335 185.239 159.636 176.929 170.42 164.91C171.105 164.151 171.95 163.553 172.894 163.16C173.839 162.768 174.859 162.59 175.88 162.64L182.28 162.97C182.788 162.997 183.278 163.164 183.697 163.452C184.116 163.74 184.447 164.139 184.654 164.603C184.861 165.067 184.935 165.58 184.869 166.084C184.803 166.588 184.599 167.064 184.28 167.46C180.11 172.541 175.392 177.146 170.21 181.19C169.91 181.427 169.663 181.724 169.485 182.061C169.306 182.399 169.199 182.77 169.172 183.151C169.145 183.532 169.197 183.915 169.326 184.274C169.455 184.634 169.657 184.963 169.92 185.24L170.75 186.12C171.005 186.396 171.2 186.72 171.325 187.074C171.45 187.428 171.501 187.804 171.476 188.178C171.451 188.552 171.349 188.918 171.178 189.252C171.007 189.586 170.769 189.881 170.48 190.12C161.247 197.304 150.369 202.074 138.83 204C138.121 204.121 137.392 203.961 136.798 203.554C136.205 203.147 135.793 202.525 135.65 201.82C135.57 201.42 135.49 201.02 135.42 200.64C135.35 200.283 135.209 199.943 135.007 199.641C134.805 199.338 134.545 199.078 134.242 198.877C133.938 198.675 133.599 198.535 133.241 198.465C132.884 198.396 132.517 198.397 132.16 198.47C121.592 200.906 110.649 201.246 99.95 199.47C99.2711 199.349 98.5716 199.487 97.9901 199.858C97.4085 200.228 96.9873 200.804 96.81 201.47L96.5 202.66C96.3226 203.326 95.9014 203.902 95.3199 204.272C94.7383 204.643 94.0388 204.781 93.36 204.66C87.88 203.66 74.43 200.59 62.22 192.34C61.6162 191.936 61.1912 191.314 61.0329 190.605C60.8747 189.896 60.9954 189.153 61.37 188.53C63.67 184.69 63.2 185.43 63.2 185.43L62.64 185.05C54.2861 179.524 46.9823 172.555 41.07 164.47C40.6463 163.917 40.0288 163.546 39.3421 163.431C38.6554 163.316 37.9506 163.466 37.37 163.85L36.46 164.45C35.8818 164.831 35.1814 164.981 34.4979 164.87C33.8144 164.759 33.1976 164.395 32.77 163.85C29.19 159.27 20.77 147.06 19.1 131.18C19.0348 130.481 19.2368 129.782 19.6653 129.226C20.0938 128.669 20.7172 128.296 21.41 128.18C25.95 127.44 24.82 127.48 24.82 127.48" fill="url(#paint4_linear)"/>
<path d="M24.9 126.62C24.1662 122.209 23.8316 117.741 23.9 113.27C23.8064 109.036 24.0909 104.803 24.75 100.62C24.8115 100.262 24.8014 99.8953 24.7204 99.5411C24.6393 99.187 24.489 98.8524 24.2779 98.5568C24.0668 98.2611 23.7993 98.0102 23.4907 97.8185C23.1821 97.6268 22.8386 97.4981 22.48 97.44L20.59 97.13C19.8834 97.0163 19.2486 96.6326 18.8195 96.0599C18.3903 95.4871 18.2005 94.77 18.29 94.06C19 88.4 21.57 74.75 30.9 63.57C31.3584 63.0216 32.0116 62.6725 32.7222 62.596C33.4328 62.5195 34.1454 62.7217 34.71 63.16L36 64C36.3114 64.209 36.6621 64.3524 37.0308 64.4214C37.3995 64.4903 37.7783 64.4834 38.1443 64.4011C38.5102 64.3187 38.8555 64.1626 39.1591 63.9424C39.4626 63.7221 39.7181 63.4423 39.91 63.12C44.6046 55.2712 51.1307 48.6765 58.93 43.9C59.5049 43.4969 59.9045 42.8898 60.0476 42.2024C60.1906 41.515 60.0663 40.799 59.7 40.2L59 39.05C58.6547 38.4904 58.5213 37.8257 58.6241 37.1762C58.7268 36.5268 59.0588 35.9356 59.56 35.51C68.2211 28.4502 78.7559 24.0743 89.87 22.92C90.5679 22.8545 91.2648 23.0551 91.8211 23.4816C92.3774 23.9081 92.752 24.529 92.87 25.22C93.6 29.62 93.68 28.6 93.68 28.6C106.12 25.53 113.81 25.38 126.68 27.29C127.31 27.3854 127.954 27.259 128.501 26.9325C129.048 26.6061 129.465 26.0997 129.68 25.5L130.37 23.61C130.577 23.0443 130.961 22.5609 131.466 22.2327C131.971 21.9045 132.569 21.7491 133.17 21.79C145.876 22.7493 157.913 27.8662 167.42 36.35C167.914 36.8018 168.228 37.4175 168.304 38.0831C168.379 38.7487 168.211 39.419 167.83 39.97C167.423 40.5582 167.261 41.282 167.378 41.9878C167.496 42.6936 167.884 43.3257 168.46 43.75C178.85 51.37 185.92 59.3 193 72.12C193.236 72.5417 193.358 73.0181 193.353 73.5016C193.347 73.985 193.215 74.4586 192.969 74.8748C192.722 75.2909 192.371 75.6352 191.95 75.873C191.529 76.1109 191.053 76.234 190.57 76.23L185.71 76.17H183.04C182.238 76.1806 181.446 75.9869 180.739 75.6073C180.033 75.2277 179.434 74.6746 179 74C170.655 60.1759 158.162 49.3366 143.299 43.0248C128.436 36.713 111.961 35.2504 96.2183 38.8452C80.4759 42.4401 66.2687 50.9092 55.6188 63.0469C44.969 75.1847 38.4193 90.3726 36.902 106.449C35.3848 122.525 38.9773 138.67 47.1682 152.586C55.3591 166.502 67.731 177.48 82.5229 183.956C97.3147 190.433 113.773 192.078 129.554 188.659C145.335 185.239 159.636 176.929 170.42 164.91C171.105 164.151 171.95 163.553 172.894 163.16C173.839 162.768 174.859 162.59 175.88 162.64L182.28 162.97C182.788 162.997 183.278 163.164 183.697 163.452C184.116 163.74 184.447 164.139 184.654 164.603C184.861 165.067 184.935 165.58 184.869 166.084C184.803 166.588 184.599 167.064 184.28 167.46C180.11 172.541 175.392 177.146 170.21 181.19C169.91 181.427 169.663 181.724 169.485 182.061C169.306 182.399 169.199 182.77 169.172 183.151C169.145 183.532 169.197 183.915 169.326 184.274C169.455 184.634 169.657 184.963 169.92 185.24L170.75 186.12C171.005 186.396 171.2 186.72 171.325 187.074C171.45 187.428 171.501 187.804 171.476 188.178C171.451 188.552 171.349 188.918 171.178 189.252C171.007 189.586 170.769 189.881 170.48 190.12C161.247 197.304 150.369 202.074 138.83 204C138.121 204.121 137.392 203.961 136.798 203.554C136.205 203.147 135.793 202.525 135.65 201.82C135.57 201.42 135.49 201.02 135.42 200.64C135.35 200.283 135.209 199.943 135.007 199.641C134.805 199.338 134.545 199.078 134.242 198.877C133.938 198.675 133.599 198.535 133.241 198.465C132.884 198.396 132.517 198.397 132.16 198.47C121.592 200.906 110.649 201.246 99.95 199.47C99.2711 199.349 98.5716 199.487 97.9901 199.858C97.4085 200.228 96.9873 200.804 96.81 201.47L96.5 202.66C96.3226 203.326 95.9014 203.902 95.3199 204.272C94.7383 204.643 94.0388 204.781 93.36 204.66C87.88 203.66 74.43 200.59 62.22 192.34C61.6162 191.936 61.1912 191.314 61.0329 190.605C60.8747 189.896 60.9954 189.153 61.37 188.53C63.67 184.69 63.2 185.43 63.2 185.43L62.64 185.05C54.2861 179.524 46.9823 172.555 41.07 164.47C40.6463 163.917 40.0288 163.546 39.3421 163.431C38.6554 163.316 37.9506 163.466 37.37 163.85L36.46 164.45C35.8818 164.831 35.1814 164.981 34.4979 164.87C33.8144 164.759 33.1976 164.395 32.77 163.85C29.19 159.27 20.77 147.06 19.1 131.18C19.0348 130.481 19.2368 129.782 19.6653 129.226C20.0938 128.669 20.7172 128.296 21.41 128.18C25.95 127.44 24.82 127.48 24.82 127.48" stroke="#00D172" stroke-width="5" stroke-miterlimit="10"/>
</g>
<defs>
<linearGradient id="paint0_linear" x1="4.44" y1="113.29" x2="231.02" y2="113.29" gradientUnits="userSpaceOnUse">
<stop offset="0.5" stop-color="#1E2832"/>
<stop offset="1" stop-color="#2D3742"/>
</linearGradient>
<linearGradient id="paint1_linear" x1="89.15" y1="101.15" x2="59.2" y2="153.03" gradientUnits="userSpaceOnUse">
<stop offset="0.29" stop-color="#121212"/>
<stop offset="1" stop-color="#4D4D4D"/>
</linearGradient>
<linearGradient id="paint2_linear" x1="162.08" y1="152.84" x2="132.07" y2="100.85" gradientUnits="userSpaceOnUse">
<stop stop-color="#4C4C4C"/>
<stop offset="0.78" stop-color="#0F0F0F"/>
</linearGradient>
<linearGradient id="paint3_linear" x1="69.71" y1="102.56" x2="174.64" y2="102.56" gradientUnits="userSpaceOnUse">
<stop stop-color="#1A1A1A"/>
<stop offset="1" stop-color="#00D172"/>
</linearGradient>
<linearGradient id="paint4_linear" x1="18.22" y1="113.29" x2="193.39" y2="113.29" gradientUnits="userSpaceOnUse">
<stop offset="0.26" stop-color="#1A1A1A"/>
<stop offset="1" stop-color="#05C46D"/>
</linearGradient>
<clipPath id="clip0">
<rect width="226.58" height="226.58" fill="white"/>
</clipPath>
</defs>
</svg>
